<svg xmlns="http://www.w3.org/2000/svg" width="1181" height="661" viewBox="0 0 1181 661">
    <g data-name="그룹 14799">
        <g data-name="그룹 14299">
            <path data-name="사각형 5234" d="M.5 1h1180v660H.5z"/>
            <g data-name="그룹 13011">
                <path data-name="선 114" transform="translate(.5 660.5)" style="fill:none;stroke:#1d1d1f" d="M0 0h1180"/>
                <path data-name="선 112" transform="translate(.5 640.5)" style="fill:none;stroke:#1d1d1f" d="M0 0h1180"/>
                <path data-name="선 113" transform="translate(.5 620.5)" style="fill:none;stroke:#1d1d1f" d="M0 0h1180"/>
                <path data-name="선 159" transform="translate(.5 600.5)" style="fill:none;stroke:#1d1d1f" d="M0 0h1180"/>
                <path data-name="선 158" transform="translate(.5 580.5)" style="fill:none;stroke:#1d1d1f" d="M0 0h1180"/>
                <path data-name="선 157" transform="translate(.5 560.5)" style="fill:none;stroke:#1d1d1f" d="M0 0h1180"/>
                <path data-name="선 163" transform="translate(.5 540.5)" style="fill:none;stroke:#1d1d1f" d="M0 0h1180"/>
                <path data-name="선 162" transform="translate(.5 520.5)" style="fill:none;stroke:#1d1d1f" d="M0 0h1180"/>
                <path data-name="선 161" transform="translate(.5 500.5)" style="fill:none;stroke:#1d1d1f" d="M0 0h1180"/>
                <path data-name="선 167" transform="translate(.5 480.5)" style="fill:none;stroke:#1d1d1f" d="M0 0h1180"/>
                <path data-name="선 166" transform="translate(.5 460.5)" style="fill:none;stroke:#1d1d1f" d="M0 0h1180"/>
                <path data-name="선 165" transform="translate(.5 440.5)" style="fill:none;stroke:#1d1d1f" d="M0 0h1180"/>
                <path data-name="선 171" transform="translate(.5 420.5)" style="fill:none;stroke:#1d1d1f" d="M0 0h1180"/>
                <path data-name="선 170" transform="translate(.5 400.5)" style="fill:none;stroke:#1d1d1f" d="M0 0h1180"/>
                <path data-name="선 169" transform="translate(.5 380.5)" style="fill:none;stroke:#1d1d1f" d="M0 0h1180"/>
                <path data-name="선 175" transform="translate(.5 360.5)" style="fill:none;stroke:#1d1d1f" d="M0 0h1180"/>
                <path data-name="선 174" transform="translate(.5 340.5)" style="fill:none;stroke:#1d1d1f" d="M0 0h1180"/>
                <path data-name="선 173" transform="translate(.5 320.5)" style="fill:none;stroke:#1d1d1f" d="M0 0h1180"/>
                <path data-name="선 172" transform="translate(.5 300.5)" style="fill:none;stroke:#1d1d1f" d="M0 0h1180"/>
                <path data-name="선 168" transform="translate(.5 280.5)" style="fill:none;stroke:#1d1d1f" d="M0 0h1180"/>
                <path data-name="선 164" transform="translate(.5 260.5)" style="fill:none;stroke:#1d1d1f" d="M0 0h1180"/>
                <path data-name="선 160" transform="translate(.5 240.5)" style="fill:none;stroke:#1d1d1f" d="M0 0h1180"/>
                <path data-name="선 156" transform="translate(.5 220.5)" style="fill:none;stroke:#1d1d1f" d="M0 0h1180"/>
                <path data-name="선 111" transform="translate(.5 200.5)" style="fill:none;stroke:#1d1d1f" d="M0 0h1180"/>
                <path data-name="선 109" transform="translate(.5 180.5)" style="fill:none;stroke:#1d1d1f" d="M0 0h1180"/>
                <path data-name="선 108" transform="translate(.5 160.5)" style="fill:none;stroke:#1d1d1f" d="M0 0h1180"/>
                <path data-name="선 107" transform="translate(.5 140.5)" style="fill:none;stroke:#1d1d1f" d="M0 0h1180"/>
                <path data-name="선 106" transform="translate(.5 120.5)" style="fill:none;stroke:#1d1d1f" d="M0 0h1180"/>
                <path data-name="선 105" transform="translate(.5 100.5)" style="fill:none;stroke:#1d1d1f" d="M0 0h1180"/>
                <path data-name="선 104" transform="translate(.5 80.5)" style="fill:none;stroke:#1d1d1f" d="M0 0h1180"/>
                <path data-name="선 103" transform="translate(.5 60.5)" style="fill:none;stroke:#1d1d1f" d="M0 0h1180"/>
                <path data-name="선 102" transform="translate(.5 40.5)" style="fill:none;stroke:#1d1d1f" d="M0 0h1180"/>
                <path data-name="선 101" transform="translate(.5 20.5)" style="fill:none;stroke:#1d1d1f" d="M0 0h1180"/>
                <path data-name="선 100" transform="translate(.5 .5)" style="fill:none;stroke:#1d1d1f" d="M0 0h1180"/>
            </g>
            <g data-name="그룹 13008">
                <path data-name="선 58" transform="translate(1180.5 .5)" style="fill:none;stroke:#1d1d1f" d="M0 0v660"/>
                <path data-name="선 124" transform="translate(1160.5 .5)" style="fill:none;stroke:#1d1d1f" d="M0 0v660"/>
                <path data-name="선 125" transform="translate(1140.5 .5)" style="fill:none;stroke:#1d1d1f" d="M0 0v660"/>
                <path data-name="선 126" transform="translate(1120.5 .5)" style="fill:none;stroke:#1d1d1f" d="M0 0v660"/>
                <path data-name="선 129" transform="translate(1100.5 .5)" style="fill:none;stroke:#1d1d1f" d="M0 0v660"/>
                <path data-name="선 131" transform="translate(1080.5 .5)" style="fill:none;stroke:#1d1d1f" d="M0 0v660"/>
                <path data-name="선 130" transform="translate(1060.5 .5)" style="fill:none;stroke:#1d1d1f" d="M0 0v660"/>
                <path data-name="선 134" transform="translate(1040.5 .5)" style="fill:none;stroke:#1d1d1f" d="M0 0v660"/>
                <path data-name="선 133" transform="translate(1020.5 .5)" style="fill:none;stroke:#1d1d1f" d="M0 0v660"/>
                <path data-name="선 137" transform="translate(1000.5 .5)" style="fill:none;stroke:#1d1d1f" d="M0 0v660"/>
                <path data-name="선 140" transform="translate(980.5 .5)" style="fill:none;stroke:#1d1d1f" d="M0 0v660"/>
                <path data-name="선 139" transform="translate(960.5 .5)" style="fill:none;stroke:#1d1d1f" d="M0 0v660"/>
                <path data-name="선 143" transform="translate(940.5 .5)" style="fill:none;stroke:#1d1d1f" d="M0 0v660"/>
                <path data-name="선 142" transform="translate(920.5 .5)" style="fill:none;stroke:#1d1d1f" d="M0 0v660"/>
                <path data-name="선 146" transform="translate(900.5 .5)" style="fill:none;stroke:#1d1d1f" d="M0 0v660"/>
                <path data-name="선 145" transform="translate(880.5 .5)" style="fill:none;stroke:#1d1d1f" d="M0 0v660"/>
                <path data-name="선 152" transform="translate(860.5 .5)" style="fill:none;stroke:#1d1d1f" d="M0 0v660"/>
                <path data-name="선 151" transform="translate(840.5 .5)" style="fill:none;stroke:#1d1d1f" d="M0 0v660"/>
                <path data-name="선 155" transform="translate(820.5 .5)" style="fill:none;stroke:#1d1d1f" d="M0 0v660"/>
                <path data-name="선 154" transform="translate(800.5 .5)" style="fill:none;stroke:#1d1d1f" d="M0 0v660"/>
                <path data-name="선 153" transform="translate(780.5 .5)" style="fill:none;stroke:#1d1d1f" d="M0 0v660"/>
                <path data-name="선 150" transform="translate(760.5 .5)" style="fill:none;stroke:#1d1d1f" d="M0 0v660"/>
                <path data-name="선 149" transform="translate(740.5 .5)" style="fill:none;stroke:#1d1d1f" d="M0 0v660"/>
                <path data-name="선 148" transform="translate(720.5 .5)" style="fill:none;stroke:#1d1d1f" d="M0 0v660"/>
                <path data-name="선 147" transform="translate(700.5 .5)" style="fill:none;stroke:#1d1d1f" d="M0 0v660"/>
                <path data-name="선 144" transform="translate(680.5 .5)" style="fill:none;stroke:#1d1d1f" d="M0 0v660"/>
                <path data-name="선 141" transform="translate(660.5 .5)" style="fill:none;stroke:#1d1d1f" d="M0 0v660"/>
                <path data-name="선 138" transform="translate(640.5 .5)" style="fill:none;stroke:#1d1d1f" d="M0 0v660"/>
                <path data-name="선 136" transform="translate(620.5 .5)" style="fill:none;stroke:#1d1d1f" d="M0 0v660"/>
                <path data-name="선 135" transform="translate(600.5 .5)" style="fill:none;stroke:#1d1d1f" d="M0 0v660"/>
                <path data-name="선 132" transform="translate(580.5 .5)" style="fill:none;stroke:#1d1d1f" d="M0 0v660"/>
                <path data-name="선 128" transform="translate(560.5 .5)" style="fill:none;stroke:#1d1d1f" d="M0 0v660"/>
                <path data-name="선 127" transform="translate(540.5 .5)" style="fill:none;stroke:#1d1d1f" d="M0 0v660"/>
                <path data-name="선 123" transform="translate(520.5 .5)" style="fill:none;stroke:#1d1d1f" d="M0 0v660"/>
                <path data-name="선 122" transform="translate(500.5 .5)" style="fill:none;stroke:#1d1d1f" d="M0 0v660"/>
                <path data-name="선 59" transform="translate(480.5 .5)" style="fill:none;stroke:#1d1d1f" d="M0 0v660"/>
                <path data-name="선 60" transform="translate(460.5 .5)" style="fill:none;stroke:#1d1d1f" d="M0 0v660"/>
                <path data-name="선 61" transform="translate(440.5 .5)" style="fill:none;stroke:#1d1d1f" d="M0 0v660"/>
                <path data-name="선 62" transform="translate(420.5 .5)" style="fill:none;stroke:#1d1d1f" d="M0 0v660"/>
                <path data-name="선 63" transform="translate(400.5 .5)" style="fill:none;stroke:#1d1d1f" d="M0 0v660"/>
                <path data-name="선 65" transform="translate(380.5 .5)" style="fill:none;stroke:#1d1d1f" d="M0 0v660"/>
                <path data-name="선 64" transform="translate(360.5 .5)" style="fill:none;stroke:#1d1d1f" d="M0 0v660"/>
                <path data-name="선 67" transform="translate(340.5 .5)" style="fill:none;stroke:#1d1d1f" d="M0 0v660"/>
                <path data-name="선 66" transform="translate(320.5 .5)" style="fill:none;stroke:#1d1d1f" d="M0 0v660"/>
                <path data-name="선 44" transform="translate(300.5 .5)" style="fill:none;stroke:#1d1d1f" d="M0 0v660"/>
                <path data-name="선 45" transform="translate(280.5 .5)" style="fill:none;stroke:#1d1d1f" d="M0 0v660"/>
                <path data-name="선 46" transform="translate(260.5 .5)" style="fill:none;stroke:#1d1d1f" d="M0 0v660"/>
                <path data-name="선 47" transform="translate(240.5 .5)" style="fill:none;stroke:#1d1d1f" d="M0 0v660"/>
                <path data-name="선 49" transform="translate(220.5 .5)" style="fill:none;stroke:#1d1d1f" d="M0 0v660"/>
                <path data-name="선 48" transform="translate(200.5 .5)" style="fill:none;stroke:#1d1d1f" d="M0 0v660"/>
                <path data-name="선 51" transform="translate(180.5 .5)" style="fill:none;stroke:#1d1d1f" d="M0 0v660"/>
                <path data-name="선 50" transform="translate(160.5 .5)" style="fill:none;stroke:#1d1d1f" d="M0 0v660"/>
                <path data-name="선 40" transform="translate(140.5 .5)" style="fill:none;stroke:#1d1d1f" d="M0 0v660"/>
                <path data-name="선 42" transform="translate(120.5 .5)" style="fill:none;stroke:#1d1d1f" d="M0 0v660"/>
                <path data-name="선 43" transform="translate(100.5 .5)" style="fill:none;stroke:#1d1d1f" d="M0 0v660"/>
                <path data-name="선 41" transform="translate(80.5 .5)" style="fill:none;stroke:#1d1d1f" d="M0 0v660"/>
                <path data-name="선 38" transform="translate(60.5 .5)" style="fill:none;stroke:#1d1d1f" d="M0 0v660"/>
                <path data-name="선 39" transform="translate(40.5 .5)" style="fill:none;stroke:#1d1d1f" d="M0 0v660"/>
                <path data-name="선 37" transform="translate(20.5 .5)" style="fill:none;stroke:#1d1d1f" d="M0 0v660"/>
                <path data-name="선 36" transform="translate(.5 .5)" style="fill:none;stroke:#1d1d1f" d="M0 0v660"/>
            </g>
        </g>
    </g>
</svg>
