<svg xmlns="http://www.w3.org/2000/svg" width="501" height="281" viewBox="0 0 501 281">
    <g data-name="그룹 14797">
        <g data-name="그룹 14781">
            <g data-name="그룹 14300">
                <g data-name="그룹 13013">
                    <path data-name="사각형 5234" d="M.5.5h500v280H.5z"/>
                    <g data-name="그룹 13011">
                        <path data-name="선 114" transform="translate(1 280.5)" style="stroke:#1d1d1f;fill:none" d="M0 0h500"/>
                        <path data-name="선 112" transform="translate(1 260.5)" style="stroke:#1d1d1f;fill:none" d="M0 0h500"/>
                        <path data-name="선 110" transform="translate(1 240.5)" style="stroke:#1d1d1f;fill:none" d="M0 0h500"/>
                        <path data-name="선 113" transform="translate(1 220.5)" style="stroke:#1d1d1f;fill:none" d="M0 0h500"/>
                        <path data-name="선 111" transform="translate(1 200.5)" style="stroke:#1d1d1f;fill:none" d="M0 0h500"/>
                        <path data-name="선 109" transform="translate(1 180.5)" style="stroke:#1d1d1f;fill:none" d="M0 0h500"/>
                        <path data-name="선 108" transform="translate(1 160.5)" style="stroke:#1d1d1f;fill:none" d="M0 0h500"/>
                        <path data-name="선 107" transform="translate(1 140.5)" style="stroke:#1d1d1f;fill:none" d="M0 0h500"/>
                        <path data-name="선 106" transform="translate(1 120.5)" style="stroke:#1d1d1f;fill:none" d="M0 0h500"/>
                        <path data-name="선 105" transform="translate(1 100.5)" style="stroke:#1d1d1f;fill:none" d="M0 0h500"/>
                        <path data-name="선 104" transform="translate(1 80.5)" style="stroke:#1d1d1f;fill:none" d="M0 0h500"/>
                        <path data-name="선 103" transform="translate(1 60.5)" style="stroke:#1d1d1f;fill:none" d="M0 0h500"/>
                        <path data-name="선 102" transform="translate(1 40.5)" style="stroke:#1d1d1f;fill:none" d="M0 0h500"/>
                        <path data-name="선 101" transform="translate(1 20.5)" style="stroke:#1d1d1f;fill:none" d="M0 0h500"/>
                        <path data-name="선 100" transform="translate(1 .5)" style="stroke:#1d1d1f;fill:none" d="M0 0h500"/>
                    </g>
                    <g data-name="그룹 13008">
                        <path data-name="선 58" transform="translate(500.5 .5)" style="stroke:#1d1d1f;fill:none" d="M0 0v280"/>
                        <path data-name="선 59" transform="translate(480.5 .5)" style="stroke:#1d1d1f;fill:none" d="M0 0v280"/>
                        <path data-name="선 60" transform="translate(460.5 .5)" style="stroke:#1d1d1f;fill:none" d="M0 0v280"/>
                        <path data-name="선 61" transform="translate(440.5 .5)" style="stroke:#1d1d1f;fill:none" d="M0 0v280"/>
                        <path data-name="선 62" transform="translate(420.5 .5)" style="stroke:#1d1d1f;fill:none" d="M0 0v280"/>
                        <path data-name="선 63" transform="translate(400.5 .5)" style="stroke:#1d1d1f;fill:none" d="M0 0v280"/>
                        <path data-name="선 65" transform="translate(380.5 .5)" style="stroke:#1d1d1f;fill:none" d="M0 0v280"/>
                        <path data-name="선 64" transform="translate(360.5 .5)" style="stroke:#1d1d1f;fill:none" d="M0 0v280"/>
                        <path data-name="선 67" transform="translate(340.5 .5)" style="stroke:#1d1d1f;fill:none" d="M0 0v280"/>
                        <path data-name="선 66" transform="translate(320.5 .5)" style="stroke:#1d1d1f;fill:none" d="M0 0v280"/>
                        <path data-name="선 44" transform="translate(300.5 .5)" style="stroke:#1d1d1f;fill:none" d="M0 0v280"/>
                        <path data-name="선 45" transform="translate(280.5 .5)" style="stroke:#1d1d1f;fill:none" d="M0 0v280"/>
                        <path data-name="선 46" transform="translate(260.5 .5)" style="stroke:#1d1d1f;fill:none" d="M0 0v280"/>
                        <path data-name="선 47" transform="translate(240.5 .5)" style="stroke:#1d1d1f;fill:none" d="M0 0v280"/>
                        <path data-name="선 49" transform="translate(220.5 .5)" style="stroke:#1d1d1f;fill:none" d="M0 0v280"/>
                        <path data-name="선 48" transform="translate(200.5 .5)" style="stroke:#1d1d1f;fill:none" d="M0 0v280"/>
                        <path data-name="선 51" transform="translate(180.5 .5)" style="stroke:#1d1d1f;fill:none" d="M0 0v280"/>
                        <path data-name="선 50" transform="translate(160.5 .5)" style="stroke:#1d1d1f;fill:none" d="M0 0v280"/>
                        <path data-name="선 40" transform="translate(140.5 .5)" style="stroke:#1d1d1f;fill:none" d="M0 0v280"/>
                        <path data-name="선 42" transform="translate(120.5 .5)" style="stroke:#1d1d1f;fill:none" d="M0 0v280"/>
                        <path data-name="선 43" transform="translate(100.5 .5)" style="stroke:#1d1d1f;fill:none" d="M0 0v280"/>
                        <path data-name="선 41" transform="translate(80.5 .5)" style="stroke:#1d1d1f;fill:none" d="M0 0v280"/>
                        <path data-name="선 38" transform="translate(60.5 .5)" style="stroke:#1d1d1f;fill:none" d="M0 0v280"/>
                        <path data-name="선 39" transform="translate(40.5 .5)" style="stroke:#1d1d1f;fill:none" d="M0 0v280"/>
                        <path data-name="선 37" transform="translate(20.5 .5)" style="stroke:#1d1d1f;fill:none" d="M0 0v280"/>
                        <path data-name="선 36" transform="translate(.5 .5)" style="stroke:#1d1d1f;fill:none" d="M0 0v280"/>
                    </g>
                </g>
            </g>
        </g>
        <g data-name="그룹 13016">
            <path data-name="선 119" transform="translate(14.5 20.5)" style="stroke:#cececf;fill:none" d="M0 0h12"/>
            <path data-name="선 120" transform="translate(20.5 14.5)" style="stroke:#cececf;fill:none" d="M0 0v12"/>
        </g>
        <g data-name="그룹 13019">
            <path data-name="선 119" transform="translate(14.5 260.5)" style="stroke:#cececf;fill:none" d="M0 0h12"/>
            <path data-name="선 120" transform="translate(20.5 254.5)" style="stroke:#cececf;fill:none" d="M0 0v12"/>
        </g>
        <g data-name="그룹 13017">
            <path data-name="선 119" transform="translate(474.5 20.5)" style="stroke:#cececf;fill:none" d="M0 0h12"/>
            <path data-name="선 120" transform="translate(480.5 14.5)" style="stroke:#cececf;fill:none" d="M0 0v12"/>
        </g>
        <g data-name="그룹 13018">
            <path data-name="선 119" transform="translate(474.5 260.5)" style="stroke:#cececf;fill:none" d="M0 0h12"/>
            <path data-name="선 120" transform="translate(480.5 254.5)" style="stroke:#cececf;fill:none" d="M0 0v12"/>
        </g>
    </g>
</svg>
