<svg xmlns="http://www.w3.org/2000/svg" width="269.005" height="45" viewBox="0 0 269.005 45">
    <defs>
        <clipPath id="u9i8eozdra">
            <path data-name="사각형 84" style="fill:#fff" d="M0 0h269.006v45H0z"/>
        </clipPath>
    </defs>
    <g data-name="그룹 13381">
        <g data-name="그룹 12276" style="clip-path:url(#u9i8eozdra)">
            <path data-name="패스 31" d="m5.574 22.976 10.775 13.3 3.164-2.476-9.149-11.053 7.891-9.973-3.211-2.342zM0 .9v34.751h4.1V0zm23.166 28.138a6.8 6.8 0 0 1 2.479-5.68q2.47-1.954 7.2-1.962h4.733v-1.57q0-5.71-5-5.711a13.725 13.725 0 0 0-3.363.45 19.666 19.666 0 0 0-3.234 1.129l-1.207-2.921a16.417 16.417 0 0 1 3.952-1.6 16 16 0 0 1 4.117-.565q8.67-.031 8.672 9.311v15.73h-3.052l-.489-2.7a14.57 14.57 0 0 1-3.9 2.289 10.739 10.739 0 0 1-3.943.808 6.863 6.863 0 0 1-5.109-1.867 6.983 6.983 0 0 1-1.853-5.148m7.7 3.692a7.23 7.23 0 0 0 1.753-.229 13.879 13.879 0 0 0 1.822-.581 10.348 10.348 0 0 0 1.708-.875 10.968 10.968 0 0 0 1.426-1.1V24.18h-4.269a7.922 7.922 0 0 0-4.729 1.12 4.17 4.17 0 0 0-1.524 3.555q0 3.866 3.813 3.866m22.037 2.929H48.8V.9l4.1-.9zm10.965-25.219 3.211 2.342-7.893 10 9.151 11.062-3.187 2.44-10.791-13.3 9.511-12.544zm8.1 18.607a6.807 6.807 0 0 1 2.471-5.68Q76.92 21.4 81.647 21.4h4.727v-1.574q0-5.71-4.995-5.711a13.791 13.791 0 0 0-3.371.45 19.644 19.644 0 0 0-3.232 1.129l-1.235-2.921a16.59 16.59 0 0 1 3.948-1.6 16.08 16.08 0 0 1 4.128-.565q8.7-.031 8.7 9.311v15.73h-3.051l-.487-2.7a14.561 14.561 0 0 1-3.907 2.289 10.821 10.821 0 0 1-3.941.808 6.863 6.863 0 0 1-5.109-1.867 6.976 6.976 0 0 1-1.845-5.148m7.664 3.7A7.308 7.308 0 0 0 81.4 32.5a14.433 14.433 0 0 0 1.816-.581 10 10 0 0 0 3.133-1.984v-5.746h-4.26a7.92 7.92 0 0 0-4.735 1.121 4.175 4.175 0 0 0-1.487 3.553q0 3.866 3.774 3.866M106.8 10.66a10.031 10.031 0 0 1 7.985 3.326q2.893 3.326 2.9 9.523c0 4.132-.953 7.214-2.874 9.394a10.107 10.107 0 0 1-8.008 3.287 10.048 10.048 0 0 1-7.983-3.29c-1.937-2.189-2.9-5.338-2.9-9.394s.976-7.312 2.921-9.523a10.022 10.022 0 0 1 7.959-3.323m0 3.326a5.669 5.669 0 0 0-4.925 2.424c-1.145 1.616-1.718 3.988-1.718 7.1s.573 5.42 1.718 6.993a6.376 6.376 0 0 0 8.967.945 6.254 6.254 0 0 0 .945-.945q1.718-2.356 1.718-6.993 0-4.667-1.718-7.1a5.715 5.715 0 0 0-4.97-2.426m17.171 19.719 4.576-4.576 4.576 4.573-4.576 4.576-4.576-4.573m.892-31.562h7.376l-.986 22.274h-5.338zm13.293 8.631h4.453l.892 2.387a11.308 11.308 0 0 1 7.687-3.142c3.007 0 5.154 1.029 6.375 3.142a11.075 11.075 0 0 1 7.625-3.142c4.919 0 7.625 2.814 7.625 9.051v16.41h-6.33v-16.01c0-2.767-1.037-3.935-3.941-3.935a11.425 11.425 0 0 0-3.935.7V35.5h-6.283V19.492c0-2.767-.984-3.935-3.9-3.935a12.8 12.8 0 0 0-3.98.7V35.53h-6.283V10.775m46.287 24.9v9.335h-6.283V10.775h4.453l.763 2.06a9.521 9.521 0 0 1 7.083-2.814c6.467 0 9.38 4.835 9.38 12.659 0 8.212-4.69 13.5-11.4 13.5a13.937 13.937 0 0 1-3.995-.511m0-19.7v15.342a14.014 14.014 0 0 0 2.287.137c4.972 0 6.75-3.424 6.75-8.769 0-4.576-1.076-7.627-5.154-7.627a9.743 9.743 0 0 0-3.882.925zm29.034 4.46h3.941v-.839c0-2.722-.847-4.271-4.575-4.271a13.808 13.808 0 0 0-6.656 1.64l-1.739-4.316a17.016 17.016 0 0 1 9.149-2.624c6.33 0 9.654 3.1 9.654 9.517v15.945h-4.408l-.7-2.111a12.367 12.367 0 0 1-7.457 2.767c-4.827 0-7.5-2.859-7.5-7.779.02-5.208 3.592-7.93 10.294-7.93m3.941 8.861v-4.826h-3.377c-3.379 0-5.163 1.358-5.163 3.813A2.759 2.759 0 0 0 212 31.235a8.9 8.9 0 0 0 5.445-1.945M246.2 16.4a14.278 14.278 0 0 0-6.009-1.313c-3.651 0-6.1 2.2-6.1 8.022s2.532 7.924 6.7 7.924a17.931 17.931 0 0 0 6.328-1.4l1.456 4.355a17.872 17.872 0 0 1-8.861 2.2c-8.022 0-11.955-4.735-11.955-13.031 0-7.969 3.933-13.131 12.047-13.131a15.443 15.443 0 0 1 8.259 2.082L246.2 16.4m4.142-5.156 3.941-.464V5.8l6.375-1.366v6.337h7.412v4.739h-7.412v10.738c0 3.813.984 4.573 2.815 4.573a12.288 12.288 0 0 0 4.078-.839l1.456 4.408a15.16 15.16 0 0 1-7.22 1.822c-5.21 0-7.5-3.187-7.5-9.517V15.51h-3.941z" transform="translate(0 .002)" style="fill:#fff"/>
        </g>
    </g>
</svg>
