<svg data-name="그룹 13066" xmlns="http://www.w3.org/2000/svg" width="18" height="18" viewBox="0 0 18 18">
    <defs>
        <clipPath id="0doizop6oa">
            <path data-name="사각형 4700" style="fill:none" d="M0 0h18v18H0z"/>
        </clipPath>
    </defs>
    <g data-name="그룹 13065" style="clip-path:url(#0doizop6oa)">
        <path data-name="패스 7470" d="M16 0H2a2 2 0 0 0-2 2v14a2 2 0 0 0 2 2h14a2 2 0 0 0 2-2V2a2 2 0 0 0-2-2M5.442 15.5H2.758V6.833h2.684zM4.087 5.7a1.6 1.6 0 1 1 1.587-1.6 1.593 1.593 0 0 1-1.587 1.6M15.5 15.5h-2.671v-4.55c0-1.247-.474-1.944-1.461-1.944-1.074 0-1.635.725-1.635 1.944v4.55H7.158V6.833h2.575V8a3.024 3.024 0 0 1 2.613-1.432c1.838 0 3.154 1.122 3.154 3.444z" style="fill:#fff"/>
    </g>
</svg>
