<svg data-name="그룹 13029" xmlns="http://www.w3.org/2000/svg" width="172.561" height="66.121" viewBox="0 0 172.561 66.121">
    <defs>
        <clipPath id="29hxd2cqta">
            <path data-name="사각형 119" d="M0 0h172.561v66.121H0z"/>
        </clipPath>
    </defs>
    <g data-name="그룹 12320" style="clip-path:url(#29hxd2cqta)">
        <path data-name="패스 137" d="M10.798 39.524c3.747 0 5.128 2.113 5.466 4.62l3.353-.31c-.423-4.114-3.3-7.3-8.819-7.3-5.917 0-9.467 4.114-9.467 10.369 0 6.677 3.353 10.791 9.467 10.791 5.128 0 8.058-1.859 8.791-6.536l-3.465-.113c-.338 2.254-1.944 3.663-5.325 3.663-4.142 0-5.917-2.789-5.917-7.8 0-4.593 1.775-7.382 5.917-7.382"/>
        <path data-name="사각형 114" d="m23.365 41.198 2.55-2.55 2.47 2.47-2.55 2.55z"/>
        <path data-name="사각형 115" d="m23.365 53.088 2.55-2.55 2.47 2.47-2.55 2.55z"/>
        <path data-name="패스 138" d="M54.673 57.36V36.875h-4.846l-4.4 11.017-1.743 4.959h-.112l-1.8-4.959-4.4-11.017h-4.874V57.36h3.3V41.524h.084l1.632 4.537 4.593 11.3h3.043l4.452-11.327 1.606-4.508h.085V57.36z"/>
        <path data-name="패스 139" d="M77.443 47.077c0-6.4-3.494-10.538-9.468-10.538s-9.466 4.138-9.466 10.538c0 6.424 3.521 10.622 9.466 10.622s9.468-4.2 9.468-10.622m-15.384.028c0-4.959 1.86-7.579 5.917-7.579s5.917 2.62 5.917 7.579-1.859 7.607-5.917 7.607-5.917-2.62-5.917-7.607"/>
        <path data-name="패스 140" d="m84.687 41.271 2.508 4.874 6.2 11.214h4.537V36.876h-3.325v16.088h-.084l-2.508-4.874-6.2-11.214h-4.537V57.36h3.325V41.271z"/>
        <path data-name="패스 141" d="M110.95 57.36V39.834h6.227v-2.959h-15.919v2.959h6.227V57.36z"/>
        <path data-name="패스 142" d="M119.942 36.876V57.36h3.466v-8.988h9.382v8.989h3.466V36.876h-3.466v8.594h-9.382v-8.594z"/>
        <path data-name="패스 143" d="M140.372 36.876V57.36h13.806v-2.959h-10.34V36.876z"/>
        <path data-name="패스 144" d="M163.874 57.36v-8.425l7.382-12.06h-3.86l-3.692 6.232-1.352 2.254h-.142l-1.38-2.283-3.776-6.2h-4.029l7.382 12.06v8.425z"/>
        <path data-name="사각형 116" d="M.026 63.351h172.536v2.77H.026z"/>
        <path data-name="패스 145" d="M.025 0 0 2.769h28.645v11.253h.689V2.769h27.957v11.253h.689V2.769h27.956v11.253h.689V2.769h27.956v11.253h.689V2.769h27.956v11.253h.689V2.769h28.645V0z"/>
        <path data-name="패스 146" d="M7.971 14.648a74.24 74.24 0 0 0 3.178-.016v1.836h1.913v-1.892a49.442 49.442 0 0 0 3.672-.324l-.093-1.2c-2.946.278-6.232.293-8.886.308z"/>
        <path data-name="패스 147" d="M9.791 18.813v3.3h9.9v-1.356h-8.017v-.71h7.714v-3.178H9.73v1.3h7.744v.648z"/>
        <path data-name="패스 148" d="M17.443 14.864h-2.468v1.142h2.468v.463h1.944v-7.96h-1.944z"/>
        <path data-name="패스 149" d="M15.623 10.76c-.015-1.25-1.4-2.067-3.455-2.067-2.083 0-3.471.817-3.486 2.067.015 1.265 1.4 2.052 3.486 2.037 2.052.016 3.44-.771 3.455-2.037m-5.122 0c0-.509.632-.818 1.666-.8 1.018-.016 1.651.293 1.666.8-.015.509-.648.787-1.666.771-1.034.016-1.666-.262-1.666-.771"/>
        <path data-name="패스 150" d="M45.385 8.477v9.843h1.944v-4.413h1.851v-1.573h-1.85V8.477z"/>
        <path data-name="패스 151" d="m36.345 15.45.8 1.543c4.119-1.172 6.433-3.764 6.449-7.467h-6.632v1.573h4.5c-.324 1.928-2.052 3.5-5.122 4.351"/>
        <path data-name="패스 152" d="M40.356 17.301h-1.944v4.66h9.38v-1.543h-7.436z"/>
        <path data-name="패스 153" d="M66.957 18.351v3.7h10.182v-1.478H68.87v-.834h7.806v-3.61h-9.75v1.481h7.837v.74z"/>
        <path data-name="패스 154" d="M65.568 13.784v1.543h12.465v-1.543h-1.712a18.512 18.512 0 0 0 .293-3.61V9.002H67.08v1.513h7.59v.787l-7.96.17.216 1.45 7.652-.278a11.278 11.278 0 0 1-.17 1.142z"/>
        <path data-name="패스 155" d="M103.007 8.477v13.761h1.913v-6.973h2.006v-1.6h-2.006V8.477z"/>
        <path data-name="패스 156" d="M101.003 14.957V9.65h-6.356v1.543h4.443v2.252h-4.412v5.585h1.141a32.248 32.248 0 0 0 6.387-.463l-.154-1.542a32.645 32.645 0 0 1-5.461.432v-2.5z"/>
        <path data-name="패스 157" d="M131.484 14.34c-.015-2.993-1.542-4.875-3.609-4.875-2.1 0-3.641 1.882-3.641 4.875 0 3.008 1.543 4.906 3.641 4.906 2.067 0 3.595-1.9 3.609-4.906m-5.4 0c0-2.037.725-3.147 1.79-3.147 1.033 0 1.743 1.111 1.759 3.147-.016 2.052-.725 3.147-1.759 3.147-1.065 0-1.79-1.1-1.79-3.147"/>
        <path data-name="사각형 117" d="M133.367 8.477h1.944v13.761h-1.944z"/>
        <path data-name="사각형 118" d="M161.875 8.477h1.913v9.133h-1.913z"/>
        <path data-name="패스 158" d="M153.019 15.882h6.7V9.588h-6.7zm1.882-4.751h2.9v3.24h-2.9z"/>
        <path data-name="패스 159" d="M158.11 16.9v.308c.015 1.528-1.45 3.039-4.351 3.425l.741 1.512a6.332 6.332 0 0 0 4.612-2.653 6.292 6.292 0 0 0 4.641 2.649l.741-1.512c-2.947-.4-4.381-1.9-4.381-3.425v-.308z"/>
        <path data-name="패스 160" d="M143.916 17.068h-.689v11.048h-27.955V17.068h-.689v11.048H86.625V17.068h-.689v11.048H57.98V17.068h-.689v11.048H29.334V17.068h-.689v11.048H.025v2.77h172.536v-2.77h-28.645z"/>
    </g>
</svg>
