<svg data-name="그룹 13068" xmlns="http://www.w3.org/2000/svg" width="18" height="12.601" viewBox="0 0 18 12.601">
    <defs>
        <clipPath id="zhr7u311oa">
            <path data-name="사각형 4701" style="fill:none" d="M0 0h18v12.601H0z"/>
        </clipPath>
    </defs>
    <g data-name="그룹 13067" style="clip-path:url(#zhr7u311oa)">
        <path data-name="패스 7471" d="M17.624 1.968A2.254 2.254 0 0 0 16.032.376 53.752 53.752 0 0 0 9 0a53.753 53.753 0 0 0-7.032.376A2.254 2.254 0 0 0 .376 1.968 23.407 23.407 0 0 0 0 6.3a23.408 23.408 0 0 0 .376 4.333 2.254 2.254 0 0 0 1.591 1.591A53.752 53.752 0 0 0 9 12.6a53.752 53.752 0 0 0 7.032-.376 2.254 2.254 0 0 0 1.591-1.591A23.408 23.408 0 0 0 18 6.3a23.55 23.55 0 0 0-.376-4.333M7.2 9V3.6l4.676 2.7z" style="fill:#fff"/>
    </g>
</svg>
