<svg xmlns="http://www.w3.org/2000/svg" width="420" height="160.413" viewBox="0 0 420 160.413">
    <g data-name="그룹 14298">
        <g data-name="그룹 14130">
            <g data-name="그룹 12991">
                <path data-name="패스 7496" d="M44.264 54.817V97.9L12.542 54.817H0v.8l4.242 6.421v53.426h10.514V76.222l29.5 39.245h10.52v-60.65z" transform="translate(0 2.741)" style="fill:#fff"/>
                <path data-name="패스 7497" d="M101.149 64.538v-9.721H66.475v60.651h34.674v-9.723H76.987V89.782H99.3v-9.723H76.987V64.538z" transform="translate(3.324 2.741)" style="fill:#fff"/>
                <path data-name="패스 7498" d="M132.894 115.463V64.538h15.955v-9.721h-42.42v9.721h15.954v50.925z" transform="translate(5.321 2.741)" style="fill:#fff"/>
                <path data-name="패스 7499" d="M161.436 54.817h-11.8l17.52 60.651h11.8L193.9 75.511l13 39.958h11.71l17.52-60.651h-11.8l-12.355 47.718-14.759-47.724h-10.6l2.122 6.957-14.939 40.766z" transform="translate(7.481 2.74)" style="fill:#fff"/>
                <g data-name="그룹 12990">
                    <g data-name="그룹 14129">
                        <path data-name="패스 7500" d="M267.968 116.5c18.35 0 32.274-13.559 32.274-31.307s-13.923-31.307-32.274-31.307c-18.352 0-32.276 13.557-32.276 31.307s13.926 31.307 32.276 31.307m-.691-52.445a21.142 21.142 0 0 1 .691 42.278c-.184 0-.368.005-.551 0a21.143 21.143 0 0 1-.14-42.281" transform="translate(11.784 2.694)" style="fill:#fff"/>
                        <path data-name="패스 7501" d="M307.612 115.465h10.512V91.472h4.8c7.925 0 14.571 9.81 17.06 23.992h10.879c-1.842-13.733-7.375-24.168-15.12-27.825 6.732-1.784 12.172-6.779 12.172-15.521 0-10.881-8.3-17.3-20.2-17.3h-20.1zm10.513-50.927h9.5v.005c5.44 0 9.407 3.124 9.407 8.653s-3.967 8.562-9.407 8.562h-9.5z" transform="translate(15.38 2.741)" style="fill:#fff"/>
                        <path data-name="패스 7502" d="m369.318 96.648 6.455-8.384 14.2 27.2h12.085L383.246 79.7l18.165-24.885h-12.359l-19.734 27.114V54.817h-10.511v60.651h10.512z" transform="translate(17.939 2.741)" style="fill:#fff"/>
                        <path data-name="사각형 5110" transform="translate(237.015 17.952)" style="fill:#fff" d="M0 0h3.737v17.281H0z"/>
                        <path data-name="패스 7550" d="M251.032 34.187v-8.51c0-3.375-1.853-4.764-4.113-4.764a4.494 4.494 0 0 0-4 1.974 3.429 3.429 0 0 0-3.348-1.974 4.051 4.051 0 0 0-3.606 1.848c-.02-.507-.09-1.233-.139-1.548H232.4c.025 1.11.025 2.221.025 3.344v9.628h3.547v-7.244c0-2.225.693-3.123 2.155-3.123 1.532 0 1.863 1.086 1.863 2.43v7.939h3.525V26.77c0-1.99.6-2.975 2.12-2.975 1.476 0 1.9 1.147 1.9 2.318v8.073z" transform="translate(11.619 1.045)" style="fill:#fff"/>
                        <path data-name="패스 7551" d="M256.782 39.01v-5.971a3.6 3.6 0 0 0 3.279 1.449c3.142 0 5.662-2.537 5.662-7.114 0-4.026-2.254-6.463-5.168-6.463a4.1 4.1 0 0 0-3.773 1.917 14.587 14.587 0 0 0-.116-1.616h-3.48a130.1 130.1 0 0 1 .025 3.128v14.67zm2.618-15.218c1.71 0 2.672 1.343 2.672 3.721 0 2.642-.925 4.12-2.826 4.12-1.941 0-2.609-1.44-2.609-3.916 0-2.613.723-3.925 2.763-3.925" transform="translate(12.659 1.045)" style="fill:#fff"/>
                        <path data-name="패스 7552" d="M272.858 26.1c-3.8 0-6.177 1.365-6.177 4.32 0 2.014 1.319 4.071 4.448 4.071 2.3 0 3.177-.845 3.647-1.575a5.222 5.222 0 0 0 .182 1.267h3.431a29.3 29.3 0 0 1-.174-3.352V25.38c0-3.089-1.892-4.446-5.367-4.468-3.946-.022-5.371 1.839-5.565 4.149h3.417c.166-.938.5-1.584 2.015-1.584 1.663 0 1.995.908 1.995 1.83v.793zm1.854 2.177v.342c0 1.714-.281 3.3-2.564 3.3a1.667 1.667 0 0 1-1.868-1.729c0-1.252.8-1.913 2.968-1.913z" transform="translate(13.333 1.046)" style="fill:#fff"/>
                        <path data-name="패스 7553" d="M286.225 23.724a2.027 2.027 0 0 1 2.223 1.8h3.508c-.072-1.469-1.287-4.607-5.662-4.607-3.948 0-6.286 3.05-6.286 6.882 0 3.9 2.076 6.694 6.114 6.694 3.865 0 5.388-2.331 5.834-4.493h-3.529a2.205 2.205 0 0 1-2.217 1.7c-1.573 0-2.558-1.258-2.558-4.02 0-2.516.93-3.956 2.572-3.956" transform="translate(14 1.046)" style="fill:#fff"/>
                        <path data-name="패스 7554" d="M300.676 24.066v-2.7h-2.541v-3.513h-3.594v3.512h-2l-.005 2.7h2v6.825c0 2.27.838 3.624 3.368 3.624a8.105 8.105 0 0 0 2.415-.248v-2.471a6.664 6.664 0 0 1-.819.041c-1.066 0-1.365-.38-1.365-1.365v-6.4z" transform="translate(14.626 .893)" style="fill:#fff"/>
                        <path data-name="패스 7555" d="M315.929 19.793a3.388 3.388 0 0 1 3.637 2.66h3.734c-.423-2.889-2.655-5.59-7.255-5.59-5.577 0-8.249 4.245-8.249 8.983 0 4.917 2.589 8.795 8.068 8.795 4.33 0 6.76-2.349 7.455-5.572h-3.759a3.437 3.437 0 0 1-3.533 2.642c-3.341 0-4.372-3.079-4.372-6 0-3.144 1.19-5.917 4.27-5.917" transform="translate(15.389 .843)" style="fill:#fff"/>
                        <path data-name="사각형 5111" transform="translate(341.069 16.935)" style="fill:#fff" d="M0 0h3.592v18.297H0z"/>
                        <path data-name="사각형 5112" transform="translate(347.887 22.258)" style="fill:#fff" d="M0 0h3.592v12.975H0z"/>
                        <path data-name="사각형 5113" transform="translate(347.887 16.935)" style="fill:#fff" d="M0 0h3.592v3.205H0z"/>
                        <path data-name="패스 7556" d="M356.426 34.187v-8.51c0-3.375-1.851-4.764-4.111-4.764a4.5 4.5 0 0 0-4 1.974 3.426 3.426 0 0 0-3.347-1.974 4.051 4.051 0 0 0-3.606 1.848 18.13 18.13 0 0 0-.139-1.548h-3.435c.025 1.11.025 2.221.025 3.344v9.628h3.547v-7.244c0-2.225.693-3.123 2.155-3.123 1.532 0 1.862 1.086 1.862 2.43v7.939h3.526V26.77c0-1.99.6-2.975 2.12-2.975 1.471 0 1.9 1.147 1.9 2.318v8.073z" transform="translate(16.889 1.045)" style="fill:#fff"/>
                        <path data-name="패스 7557" d="M363.905 26.1c-3.8 0-6.177 1.365-6.177 4.32 0 2.014 1.319 4.071 4.449 4.071 2.293 0 3.176-.845 3.647-1.575a5.278 5.278 0 0 0 .176 1.271h3.431a29.541 29.541 0 0 1-.174-3.352v-5.45c0-3.089-1.89-4.446-5.367-4.468-3.946-.022-5.37 1.839-5.565 4.149h3.415c.167-.938.5-1.584 2.016-1.584 1.663 0 2 .908 2 1.83v.788zm1.854 2.177v.342c0 1.714-.279 3.3-2.562 3.3a1.667 1.667 0 0 1-1.868-1.729c0-1.252.8-1.913 2.966-1.913z" transform="translate(17.885 1.046)" style="fill:#fff"/>
                        <path data-name="패스 7558" d="M372.363 17.853v3.512h-1.995l-.005 2.7h2v6.825c0 2.27.839 3.624 3.368 3.624a8.1 8.1 0 0 0 2.415-.248v-2.471a6.657 6.657 0 0 1-.818.041c-1.066 0-1.365-.38-1.365-1.365v-6.4h2.537v-2.7h-2.541v-3.518z" transform="translate(18.517 .893)" style="fill:#fff"/>
                        <path data-name="패스 7559" d="M391.5 27.378c0-3.239-1.516-6.463-5.971-6.463-4.166 0-6.255 2.906-6.255 6.975 0 3.406 1.854 6.6 6.126 6.6a5.685 5.685 0 0 0 5.952-4.2h-3.594a2.048 2.048 0 0 1-2.265 1.385c-1.789 0-2.6-1.586-2.6-3.208h8.563a7.793 7.793 0 0 0 .048-1.1m-8.534-1.114c.14-1.595.836-2.781 2.555-2.781 1.75 0 2.355 1.27 2.38 2.781z" transform="translate(18.963 1.046)" style="fill:#fff"/>
                        <path data-name="패스 7560" d="m314.409 129.682-.017 11.483-21.236-15.128a4.411 4.411 0 0 0-2.564-.821L.017 125.19v8.841l289.157.026 27.06 19.276a4.411 4.411 0 0 0 2.564.821 4.423 4.423 0 0 0 4.42-4.41l.021-15.631h96.408v-8.84H318.83a4.421 4.421 0 0 0-4.42 4.41" transform="translate(.001 6.259)" style="fill:#fff"/>
                        <path data-name="패스 7561" d="M214.55 34.361a4.419 4.419 0 0 0 4.418-4.42v-21.1h200.779V0h-205.2a4.421 4.421 0 0 0-4.42 4.42v21.095l-210.11.044V34.4l214.531-.039z" transform="translate(.001)" style="fill:#fff"/>
                    </g>
                </g>
            </g>
        </g>
    </g>
</svg>
