<svg data-name="그룹 13034" xmlns="http://www.w3.org/2000/svg" width="159.742" height="51.281" viewBox="0 0 159.742 51.281">
    <defs>
        <clipPath id="j9gguih2sa">
            <path data-name="사각형 106" style="fill:none" d="M0 0h159.742v51.281H0z"/>
        </clipPath>
    </defs>
    <path data-name="패스 121" d="M21.446 55.089v16.73l-9.324-14.207-1.04.683 8.941 13.622-15.254-6.286-.474 1.15 15.445 6.365H0v2.074h44.68v-2.074H25.038l14.356-5.916-.474-1.15-15.043 6.2 9.178-13.98-1.04-.683-9.325 14.202v-16.73z" transform="translate(0 -25.32)" style="fill:#fbb03b"/>
    <g data-name="그룹 12298">
        <g data-name="그룹 12297" style="clip-path:url(#j9gguih2sa)">
            <path data-name="패스 122" d="M10.62 0a9.125 9.125 0 0 1 7.867 4.362l-2.148 1.5a6.6 6.6 0 0 0-5.719-3.24 6.22 6.22 0 0 0-6.3 6.589 6.256 6.256 0 0 0 6.366 6.589 6.826 6.826 0 0 0 5.8-3.162l2.069 1.436a9.091 9.091 0 0 1-7.867 4.348 9.1 9.1 0 0 1-9.266-9.211A9.061 9.061 0 0 1 10.62 0" transform="translate(-.654)" style="fill:#040000"/>
            <path data-name="패스 123" d="M60.7 12.928a5.222 5.222 0 0 0 4.928 3c2.069 0 3.677-.988 3.677-2.557 0-1.5-1.423-2.162-4.059-3.005-3.4-1.094-6.075-2.227-6.049-5.39C59.221 1.713 62.3 0 65.283 0A6.975 6.975 0 0 1 71.7 3.69l-2.148 1.5a4.891 4.891 0 0 0-4.27-2.675c-1.7 0-3.308.869-3.308 2.451s1.463 2 3.993 2.86c3.334 1.133 6.115 2.056 6.115 5.522 0 3.4-3.334 5.073-6.4 5.073a7.442 7.442 0 0 1-7.05-4.058z" transform="translate(-26.947)" style="fill:#040000"/>
            <path data-name="패스 124" d="M86.836 9.238a9.244 9.244 0 0 1 18.489 0 9.244 9.244 0 0 1-18.489 0m9.238 6.562c3.835 0 6.352-2.648 6.352-6.589 0-3.848-2.518-6.589-6.352-6.589-3.782 0-6.339 2.741-6.339 6.589 0 3.94 2.557 6.589 6.339 6.589" transform="translate(-39.912)" style="fill:#040000"/>
            <path data-name="패스 125" d="M139.445 18.384h-12.966V.488h2.781v15.379h10.186z" transform="translate(-58.132 -.224)" style="fill:#040000"/>
            <path data-name="패스 126" d="M152.687 11.914V.489h2.741V11.8c0 2.622 1.871 4.283 4.784 4.283s4.77-1.661 4.77-4.283V.489h2.741v11.425c0 4.1-2.926 6.734-7.511 6.734s-7.525-2.635-7.525-6.734" transform="translate(-70.178 -.225)" style="fill:#040000"/>
            <path data-name="패스 127" d="M184.112.488h14.549v2.6h-5.891v15.3h-2.754V3.084h-5.9z" transform="translate(-84.622 -.225)" style="fill:#040000"/>
            <path data-name="사각형 105" transform="translate(116.182 .264)" style="fill:#040000" d="M0 0h2.767v17.896H0z"/>
            <path data-name="패스 128" d="M225.558 9.238a9.245 9.245 0 0 1 18.489 0 9.245 9.245 0 0 1-18.489 0M234.8 15.8c3.835 0 6.351-2.648 6.351-6.589 0-3.848-2.517-6.589-6.351-6.589-3.783 0-6.339 2.741-6.339 6.589 0 3.94 2.556 6.589 6.339 6.589" transform="translate(-103.671)" style="fill:#040000"/>
            <path data-name="패스 129" d="M265.2 18.384V.488h2.767l10.9 13.639V.488h2.768v17.9h-2.795L267.968 4.876v13.508z" transform="translate(-121.892 -.224)" style="fill:#040000"/>
            <path data-name="패스 130" d="M112.86 60.806a9.125 9.125 0 0 1 7.867 4.362l-2.148 1.5a6.6 6.6 0 0 0-5.719-3.242 6.22 6.22 0 0 0-6.3 6.589 6.256 6.256 0 0 0 6.365 6.589 6.825 6.825 0 0 0 5.8-3.162l2.069 1.436a9.246 9.246 0 1 1-7.933-14.074" transform="translate(-47.645 -27.948)" style="fill:#040000"/>
            <path data-name="패스 131" d="M137.769 70.045a9.245 9.245 0 1 1 9.238 9.185 8.976 8.976 0 0 1-9.238-9.185m9.238 6.562c3.835 0 6.352-2.648 6.352-6.589 0-3.848-2.518-6.589-6.352-6.589-3.782 0-6.339 2.741-6.339 6.589 0 3.94 2.557 6.589 6.339 6.589" transform="translate(-63.322 -27.948)" style="fill:#040000"/>
            <path data-name="패스 132" d="M177.045 72.72V61.295h2.741V72.6c0 2.622 1.871 4.283 4.784 4.283s4.77-1.661 4.77-4.283V61.295h2.741V72.72c0 4.1-2.926 6.734-7.511 6.734s-7.525-2.635-7.525-6.734" transform="translate(-81.374 -28.173)" style="fill:#040000"/>
            <path data-name="패스 133" d="M219.775 61.319c3.69 0 6.088 2.082 6.088 5.429a5.157 5.157 0 0 1-3.624 5.047l4.336 7.406h-3.215l-4.046-7.024h-4.467V79.2h-2.767V61.319zm-4.928 2.49v5.9h4.8c2.2 0 3.334-1.226 3.334-2.965 0-1.779-1.133-2.939-3.334-2.939z" transform="translate(-97.477 -28.184)" style="fill:#040000"/>
            <path data-name="패스 134" d="M243.6 73.734a5.223 5.223 0 0 0 4.928 3c2.069 0 3.677-.988 3.677-2.557 0-1.5-1.423-2.162-4.059-3.005-3.4-1.094-6.075-2.227-6.049-5.39.027-3.268 3.11-4.981 6.089-4.981A6.973 6.973 0 0 1 254.6 64.5l-2.146 1.5a4.891 4.891 0 0 0-4.27-2.675c-1.7 0-3.308.869-3.308 2.451s1.463 2 3.993 2.86c3.334 1.133 6.115 2.056 6.115 5.522 0 3.4-3.335 5.073-6.405 5.073a7.442 7.442 0 0 1-7.05-4.059z" transform="translate(-111.012 -27.948)" style="fill:#040000"/>
            <path data-name="패스 135" d="M271.884 61.295h12.546v2.517h-9.779v4.928h8.395v2.517h-8.395v5.416h10.055v2.517h-12.822z" transform="translate(-124.964 -28.172)" style="fill:#040000"/>
            <path data-name="패스 136" d="m43.266 4.34 1.91 1.91L43.2 8.222l-1.91-1.91zm1.91 11.1L43.2 17.417l-1.91-1.91 1.972-1.972z" transform="translate(-18.98 -1.995)" style="fill:#040000"/>
        </g>
    </g>
</svg>
