<svg data-name="그룹 14466" xmlns="http://www.w3.org/2000/svg" width="120.65" height="81.549" viewBox="0 0 120.65 81.549">
    <defs>
        <clipPath id="ujlg8xw4ka">
            <path data-name="사각형 5520" style="fill:none" d="M0 0h120.65v81.548H0z"/>
        </clipPath>
    </defs>
    <g data-name="그룹 14465" style="clip-path:url(#ujlg8xw4ka)">
        <path data-name="패스 7621" d="M12.6 20.62c0 3.843-2.492 5.267-6.264 5.267h-.073C2.491 25.887 0 24.5 0 20.62V5.674C0 1.973 2.491.407 6.263.407h.071c3.772 0 6.264 1.566 6.264 5.267V9.54a.69.69 0 0 1-.69.69H9.159a.689.689 0 0 1-.689-.69V6.314c0-1.743-.855-2.277-2.171-2.277s-2.171.534-2.171 2.277V19.98c0 1.744.854 2.277 2.171 2.277s2.171-.533 2.171-2.277v-3.83a.689.689 0 0 1 .689-.69h2.749a.69.69 0 0 1 .69.69z" transform="translate(0 -.185)" style="fill:#00226a"/>
        <path data-name="패스 7622" d="M35.393 7.274 37.221 9.1a.64.64 0 0 1 0 .906l-1.916 1.917a.642.642 0 0 1-.906 0L32.572 10.1a.639.639 0 0 1 0-.905l1.916-1.916a.639.639 0 0 1 .906 0m1.828 15.888-1.916 1.916a.641.641 0 0 1-.906 0l-1.827-1.827a.64.64 0 0 1 0-.906l1.916-1.916a.64.64 0 0 1 .906 0l1.828 1.828a.64.64 0 0 1 0 .906" transform="translate(-14.686 -3.213)" style="fill:#00226a"/>
        <path data-name="패스 7623" d="M206.352 29.006a.657.657 0 0 1-.657-.657V9.741a.657.657 0 0 1 1.314 0v18.608a.657.657 0 0 1-.657.657" transform="translate(-93.279 -4.12)" style="fill:#00226a"/>
        <path data-name="패스 7624" d="M219.015 25.875a.657.657 0 0 1-.657-.657V2.838a.657.657 0 1 1 1.314 0v22.38a.657.657 0 0 1-.657.657" transform="translate(-99.022 -.989)" style="fill:#00226a"/>
        <path data-name="패스 7625" d="M193.69 36.726a.657.657 0 0 1-.657-.657v-9.3a.657.657 0 0 1 1.314 0v9.3a.657.657 0 0 1-.657.657" transform="translate(-87.537 -11.84)" style="fill:#00226a"/>
        <path data-name="패스 7626" d="M14.593 92.235a.657.657 0 0 1-.657-.657V72.97a.657.657 0 0 1 1.313 0v18.608a.657.657 0 0 1-.657.657" transform="translate(-6.32 -32.793)" style="fill:#00226a"/>
        <path data-name="패스 7627" d="M2.157 89.1a.657.657 0 0 1-.657-.657V66.067a.657.657 0 0 1 1.314 0v22.38a.657.657 0 0 1-.657.657" transform="translate(-.68 -29.662)" style="fill:#00226a"/>
        <path data-name="패스 7628" d="M27.029 99.955a.657.657 0 0 1-.657-.657v-9.3a.657.657 0 0 1 1.314 0v9.3a.657.657 0 0 1-.657.657" transform="translate(-11.959 -40.513)" style="fill:#00226a"/>
        <path data-name="패스 7629" d="M64.337 87.808a.657.657 0 0 1-.657-.657V63.582a.657.657 0 1 1 1.314 0v23.57a.657.657 0 0 1-.657.657" transform="translate(-28.878 -28.535)" style="fill:#00226a"/>
        <path data-name="패스 7630" d="M51.9 92.066a.657.657 0 0 1-.657-.657V72.97a.657.657 0 0 1 1.314 0v18.439a.657.657 0 0 1-.657.657" transform="translate(-23.238 -32.793)" style="fill:#00226a"/>
        <path data-name="패스 7631" d="M76.773 92.9a.657.657 0 0 1-.657-.657v-17.43a.657.657 0 0 1 1.314 0v17.432a.657.657 0 0 1-.657.657" transform="translate(-34.517 -33.629)" style="fill:#00226a"/>
        <path data-name="패스 7632" d="M89.209 98.261a.657.657 0 0 1-.657-.657V86.632a.657.657 0 1 1 1.314 0V97.6a.657.657 0 0 1-.657.657" transform="translate(-40.157 -38.988)" style="fill:#00226a"/>
        <path data-name="패스 7633" d="M101.645 101.76a.657.657 0 0 1-.657-.657v-6.755a.657.657 0 1 1 1.314 0v6.752a.657.657 0 0 1-.657.657" transform="translate(-45.796 -42.487)" style="fill:#00226a"/>
        <path data-name="패스 7634" d="M115.607 92.976a.657.657 0 0 1-.657-.657V74.977a.657.657 0 1 1 1.314 0v17.342a.657.657 0 0 1-.657.657" transform="translate(-52.128 -33.703)" style="fill:#00226a"/>
        <path data-name="패스 7635" d="M128.043 96.724a.657.657 0 0 1-.657-.657V83.241a.657.657 0 0 1 1.314 0v12.826a.657.657 0 0 1-.657.657" transform="translate(-57.767 -37.451)" style="fill:#00226a"/>
        <path data-name="패스 7636" d="M39.465 87.808a.657.657 0 0 1-.657-.657v-23.57a.657.657 0 0 1 1.314 0v23.57a.657.657 0 0 1-.657.657" transform="translate(-17.599 -28.535)" style="fill:#00226a"/>
        <path data-name="패스 7637" d="M57.126.659c4.1 0 6.337 2.232 6.337 6.373v2.017c0 4.141-2.233 6.374-6.337 6.374h-.973a.718.718 0 0 0-.719.718v9.006a.719.719 0 0 1-.719.718h-2.38a.719.719 0 0 1-.718-.718V1.378a.718.718 0 0 1 .718-.719zm-1.692 10.516a.718.718 0 0 0 .719.719h.829c1.836 0 2.665-.972 2.665-3.1v-1.51c0-2.124-.829-3.1-2.665-3.1h-.829a.718.718 0 0 0-.719.718z" transform="translate(-23.407 -.299)" style="fill:#00226a"/>
        <path data-name="패스 7638" d="M82.81 15.205h-.5a.718.718 0 0 0-.718.718v9.222a.718.718 0 0 1-.718.718h-2.38a.718.718 0 0 1-.719-.718V1.377a.719.719 0 0 1 .719-.719h4.791c4.1 0 6.337 2.233 6.337 6.373v1.8c0 2.442-.786 4.219-2.276 5.274a.712.712 0 0 0-.267.788l3.053 10.042a.718.718 0 0 1-.687.927h-2.524a.719.719 0 0 1-.691-.522l-2.73-9.612a.719.719 0 0 0-.691-.522m-1.221-4.247a.718.718 0 0 0 .718.718h.831c1.836 0 2.664-.972 2.664-3.1v-1.3c0-2.124-.828-3.1-2.664-3.1h-.831a.718.718 0 0 0-.718.718z" transform="translate(-35.268 -.298)" style="fill:#00226a"/>
        <path data-name="패스 7639" d="M109.786 4.906V10.6a.718.718 0 0 0 .718.718h4.145a.718.718 0 0 1 .718.719v2.092a.718.718 0 0 1-.718.719H110.5a.718.718 0 0 0-.718.718v6.053a.719.719 0 0 0 .718.719h5.477a.718.718 0 0 1 .718.718v2.092a.718.718 0 0 1-.718.718h-9.294a.718.718 0 0 1-.719-.718V1.378a.719.719 0 0 1 .719-.719h9.294a.718.718 0 0 1 .718.719v2.091a.718.718 0 0 1-.718.719H110.5a.718.718 0 0 0-.718.718" transform="translate(-48.055 -.299)" style="fill:#00226a"/>
        <path data-name="패스 7640" d="M140.586 5.761v.069a.718.718 0 0 1-.648.715l-2.236.219a.719.719 0 0 1-.789-.715c0-1.728-.648-2.52-1.981-2.52a1.787 1.787 0 0 0-1.908 2.053v.54c0 1.4.72 2.556 3.2 4.825 3.385 3.133 4.537 5.185 4.537 8.1v1.225c0 3.709-2.341 5.653-5.834 5.653-3.528 0-5.905-2.052-5.905-5.761v-1.005a.718.718 0 0 1 .648-.715l2.236-.219a.719.719 0 0 1 .789.715v.936c0 1.693.792 2.521 2.16 2.521 1.152 0 2.088-.612 2.088-2.412v-.792c0-1.584-.72-2.736-3.2-5.005-3.385-3.133-4.537-5.185-4.537-7.922v-.613c0-3.709 2.161-5.653 5.69-5.653s5.689 2.052 5.689 5.761" transform="translate(-58.512)" style="fill:#00226a"/>
        <path data-name="패스 7641" d="M164.1 5.761v.069a.718.718 0 0 1-.648.715l-2.236.219a.719.719 0 0 1-.789-.715c0-1.728-.648-2.52-1.981-2.52a1.787 1.787 0 0 0-1.908 2.053v.54c0 1.4.72 2.556 3.2 4.825 3.385 3.133 4.537 5.185 4.537 8.1v1.225c0 3.709-2.341 5.653-5.834 5.653-3.528 0-5.905-2.052-5.905-5.761v-1.005a.718.718 0 0 1 .648-.715l2.236-.219a.719.719 0 0 1 .789.715v.936c0 1.693.792 2.521 2.16 2.521 1.152 0 2.089-.612 2.089-2.412v-.792c0-1.584-.721-2.736-3.205-5.005-3.385-3.133-4.537-5.185-4.537-7.922v-.613c0-3.709 2.161-5.653 5.69-5.653s5.694 2.052 5.694 5.761" transform="translate(-69.177)" style="fill:#00226a"/>
        <path data-name="패스 7642" d="M150.819 60.823c4.1 0 6.337 2.232 6.337 6.373v12.459c0 4.141-2.232 6.373-6.337 6.373h-4.755a.719.719 0 0 1-.719-.719V61.541a.718.718 0 0 1 .719-.718zm-1.656 20.958a.718.718 0 0 0 .718.718h.794c1.836 0 2.664-.972 2.664-3.1V67.448c0-2.125-.828-3.1-2.664-3.1h-.794a.719.719 0 0 0-.718.719z" transform="translate(-65.912 -27.582)" style="fill:#00226a"/>
        <path data-name="패스 7643" d="m180.617 85.413-.65-4.495a.719.719 0 0 0-.711-.615h-2.969a.718.718 0 0 0-.711.615l-.65 4.495a.718.718 0 0 1-.711.615h-2.341a.719.719 0 0 1-.708-.841l4.109-23.769a.718.718 0 0 1 .708-.6h3.651a.718.718 0 0 1 .708.6l4.109 23.769a.718.718 0 0 1-.708.841h-2.414a.719.719 0 0 1-.711-.615M177 76.846h1.543a.718.718 0 0 0 .711-.822l-1.429-9.8h-.108l-1.429 9.8a.719.719 0 0 0 .711.822" transform="translate(-77.616 -27.582)" style="fill:#00226a"/>
        <path data-name="패스 7644" d="M202.695 86.028h-2.38a.718.718 0 0 1-.718-.718V74.747a.715.715 0 0 0-.048-.257l-4.871-12.69a.718.718 0 0 1 .671-.976h2.482a.719.719 0 0 1 .676.475l3.034 8.454h.072l2.894-8.444a.719.719 0 0 1 .68-.485h2.413a.718.718 0 0 1 .672.972l-4.808 12.732a.716.716 0 0 0-.046.254V85.31a.719.719 0 0 1-.719.718" transform="translate(-88.261 -27.582)" style="fill:#00226a"/>
        <path data-name="패스 7645" d="M75.294 136.87a.276.276 0 0 1 .132-.369 7.651 7.651 0 0 0 2.072-1.44 7.237 7.237 0 0 0 2.213-5.644.276.276 0 0 0-.277-.28h-3.3a.276.276 0 0 1-.276-.276v-.943a.276.276 0 0 1 .276-.276h5.132a.276.276 0 0 1 .276.276v1.219c0 3.315-.959 5.374-2.694 7.053a9.375 9.375 0 0 1-2.712 1.8.277.277 0 0 1-.368-.13zm9.559 2.2h-1.267a.276.276 0 0 1-.276-.276v-11.68a.276.276 0 0 1 .276-.276h1.267a.276.276 0 0 1 .276.276v11.677a.276.276 0 0 1-.276.276" transform="translate(-34.132 -57.519)" style="fill:#00226a"/>
        <path data-name="패스 7646" d="M107.089 134.771v.943a.276.276 0 0 1-.276.276h-3.821a.276.276 0 0 0-.276.276v2.466a.276.276 0 0 1-.276.276h-1.24a.276.276 0 0 1-.276-.276v-2.466a.276.276 0 0 0-.276-.276h-3.806a.276.276 0 0 1-.276-.276v-.943a.276.276 0 0 1 .276-.276h9.971a.276.276 0 0 1 .276.276m-.677-6.051v.83a.276.276 0 0 1-.276.276h-8.6a.276.276 0 0 1-.276-.276v-.83a.276.276 0 0 1 .276-.276h8.6a.276.276 0 0 1 .276.276m-4.584 1.459c2.821 0 4.1.733 4.1 1.946s-1.3 1.975-4.1 1.975-4.1-.762-4.1-1.975 1.3-1.946 4.1-1.946m0 1.354c-1.467 0-2.243.14-2.243.592s.776.621 2.243.621 2.257-.169 2.257-.621-.776-.592-2.257-.592m2.158-4.549v.689a.276.276 0 0 1-.276.276h-3.75a.276.276 0 0 1-.276-.276v-.689a.276.276 0 0 1 .276-.276h3.75a.276.276 0 0 1 .276.276" transform="translate(-43.791 -57.46)" style="fill:#00226a"/>
        <path data-name="패스 7647" d="M117.879 137.13h9.971a.276.276 0 0 1 .276.276v.929a.276.276 0 0 1-.276.276h-9.971a.276.276 0 0 1-.276-.276v-.929a.276.276 0 0 1 .276-.276m9.5-3.631v.9a.276.276 0 0 1-.276.276h-8.463a.276.276 0 0 1-.276-.276v-.9a.276.276 0 0 1 .276-.277h1.2a.276.276 0 0 0 .275-.3l-.237-2.4a.276.276 0 0 1 .275-.3h1.187a.276.276 0 0 1 .275.257l.175 2.491a.276.276 0 0 0 .275.256h1.616a.276.276 0 0 0 .275-.256l.175-2.491a.275.275 0 0 1 .275-.257h1.187a.276.276 0 0 1 .275.3l-.236 2.4a.275.275 0 0 0 .274.3h1.2a.276.276 0 0 1 .276.277m-.028-5.12v.9a.276.276 0 0 1-.276.276h-8.4a.276.276 0 0 1-.276-.276v-.9a.276.276 0 0 1 .276-.276h8.4a.276.276 0 0 1 .276.276" transform="translate(-53.331 -58.093)" style="fill:#00226a"/>
        <path data-name="패스 7648" d="M141.171 136.251a16.068 16.068 0 0 0 2.26-.275.276.276 0 0 1 .331.244l.088.938a.275.275 0 0 1-.219.3 16.061 16.061 0 0 1-2.719.316h-1.374a.276.276 0 0 1-.276-.276v-5.556a.276.276 0 0 1 .276-.276h1.959a.276.276 0 0 0 .276-.276v-2.114a.276.276 0 0 0-.276-.276h-1.959a.276.276 0 0 1-.276-.276v-.914a.276.276 0 0 1 .276-.276h3.552a.276.276 0 0 1 .276.276v5.062a.276.276 0 0 1-.276.276h-1.93a.276.276 0 0 0-.276.276v2.556a.276.276 0 0 0 .289.276m3.534-4.865v-4.131a.276.276 0 0 1 .276-.276h1.056a.276.276 0 0 1 .276.276v11.254a.276.276 0 0 1-.276.276h-1.056a.276.276 0 0 1-.276-.276v-4.977a.276.276 0 0 0-.276-.277h-.45a.276.276 0 0 1-.276-.276v-1.042a.276.276 0 0 1 .276-.276h.45a.276.276 0 0 0 .276-.276m2.7-4.548h1.126a.276.276 0 0 1 .276.276v11.677a.276.276 0 0 1-.276.276h-1.126a.276.276 0 0 1-.276-.276v-11.681a.276.276 0 0 1 .276-.276" transform="translate(-63.152 -57.519)" style="fill:#00226a"/>
        <path data-name="패스 7649" d="M159.953 137.107h9.97a.276.276 0 0 1 .276.276v.929a.276.276 0 0 1-.276.276h-9.97a.276.276 0 0 1-.277-.276v-.929a.276.276 0 0 1 .277-.276m.374-2.727-.28-.875a.279.279 0 0 1 .183-.352 5.315 5.315 0 0 0 3.579-3.339 7.352 7.352 0 0 0 .312-1.506.28.28 0 0 1 .279-.257h1.089a.279.279 0 0 1 .278.259 6.856 6.856 0 0 0 .3 1.5 5.359 5.359 0 0 0 3.578 3.338.28.28 0 0 1 .184.352l-.28.874a.28.28 0 0 1-.348.183c-1.7-.524-3.792-1.806-4.221-3.267v-.01a.036.036 0 0 0-.067-.007v.005c-.431 1.473-2.527 2.756-4.234 3.279a.279.279 0 0 1-.347-.183" transform="translate(-72.41 -58.069)" style="fill:#00226a"/>
        <path data-name="패스 7650" d="M183.329 136.08a17.668 17.668 0 0 0 2.136-.226.276.276 0 0 1 .328.256l.054.956a.276.276 0 0 1-.224.286 16.663 16.663 0 0 1-2.584.248h-1.431a.276.276 0 0 1-.276-.277v-9.462a.276.276 0 0 1 .276-.276h3.75a.276.276 0 0 1 .276.276v.929a.276.276 0 0 1-.276.276h-2.043a.276.276 0 0 0-.276.276v6.458a.276.276 0 0 0 .29.275m3.377-4.891v-3.934a.276.276 0 0 1 .277-.276h1.056a.276.276 0 0 1 .276.276v11.254a.276.276 0 0 1-.276.276h-1.056a.276.276 0 0 1-.277-.276v-5.316a.276.276 0 0 0-.276-.276h-1.168a.276.276 0 0 1-.277-.276v-.9a.276.276 0 0 1 .277-.276h1.168a.276.276 0 0 0 .276-.276m2.773-4.351h1.126a.276.276 0 0 1 .276.276v11.677a.276.276 0 0 1-.276.276h-1.125a.276.276 0 0 1-.276-.276v-11.672a.276.276 0 0 1 .276-.276" transform="translate(-82.231 -57.519)" style="fill:#00226a"/>
        <path data-name="패스 7651" d="M204.967 137.925c-2.1 0-3.216-1.594-3.216-5.275s1.114-5.29 3.216-5.29 3.216 1.594 3.216 5.29-1.114 5.275-3.216 5.275m0-1.495c.847 0 1.383-.875 1.383-3.78s-.536-3.809-1.383-3.809-1.383.9-1.383 3.809.522 3.78 1.383 3.78m6.241 2.637h-1.268a.276.276 0 0 1-.276-.276v-11.677a.276.276 0 0 1 .276-.276h1.267a.276.276 0 0 1 .276.276v11.677a.276.276 0 0 1-.276.276" transform="translate(-91.491 -57.519)" style="fill:#00226a"/>
    </g>
</svg>
