<svg data-name="그룹 14464" xmlns="http://www.w3.org/2000/svg" width="194.047" height="73.293" viewBox="0 0 194.047 73.293">
    <defs>
        <clipPath id="ywqgwhhhsa">
            <path data-name="사각형 5519" style="fill:none" d="M0 0h194.047v73.293H0z"/>
        </clipPath>
    </defs>
    <g data-name="그룹 14463" style="clip-path:url(#ywqgwhhhsa)">
        <path data-name="패스 7579" d="M80.369 6.48a.746.746 0 0 0 .747-.746l.005-4.987a.746.746 0 0 0-1.493 0l-.006 4.988a.746.746 0 0 0 .746.747" transform="translate(-30.434)" style="fill:#ffb600"/>
        <path data-name="패스 7580" d="M92.395 17.868a.746.746 0 0 0 0-1.493l-4.988-.006a.746.746 0 1 0 0 1.493z" transform="translate(-33.125 -6.257)" style="fill:#003683"/>
        <path data-name="패스 7581" d="M297.331 33.459a.745.745 0 0 0-.747.746l-.006 4.987a.746.746 0 0 0 1.493 0l.006-4.988a.746.746 0 0 0-.746-.747" transform="translate(-113.36 -12.789)" style="fill:#ffb600"/>
        <path data-name="패스 7582" d="m309.352 49.835-4.987-.006a.746.746 0 1 0 0 1.493l4.987.006a.746.746 0 1 0 0-1.493" transform="translate(-116.051 -19.046)" style="fill:#003683"/>
        <path data-name="패스 7583" d="M.8 22.083a.745.745 0 0 0-.747.746L.036 36.168a.746.746 0 0 0 1.493 0l.014-13.338a.746.746 0 0 0-.743-.747" transform="translate(-.014 -8.441)" style="fill:#ffb600"/>
        <path data-name="패스 7584" d="M.761 55.3a.745.745 0 0 0-.747.746L0 69.384a.746.746 0 1 0 1.493 0l.014-13.339a.746.746 0 0 0-.746-.745" transform="translate(0 -21.137)" style="fill:#ffb600"/>
        <path data-name="패스 7585" d="M80.328 22.168a.745.745 0 0 0-.747.746l-.014 13.339a.746.746 0 1 0 1.493 0l.014-13.339a.746.746 0 0 0-.746-.747" transform="translate(-30.413 -8.473)" style="fill:#ffb600"/>
        <path data-name="패스 7586" d="M297.3 55.617a.745.745 0 0 0-.747.746l-.012 13.337a.746.746 0 1 0 1.493 0l.014-13.339a.746.746 0 0 0-.746-.747" transform="translate(-113.346 -21.258)" style="fill:#ffb600"/>
        <path data-name="패스 7587" d="M297.264 91.072a.745.745 0 0 0-.747.746l-.014 13.339a.746.746 0 0 0 1.493 0l.014-13.339a.746.746 0 0 0-.746-.747" transform="translate(-113.331 -34.81)" style="fill:#ffb600"/>
        <path data-name="패스 7588" d="M183.117 90.94a.745.745 0 0 0-.747.746l-.014 13.339a.746.746 0 0 0 1.493 0l.014-13.339a.746.746 0 0 0-.746-.747" transform="translate(-69.701 -34.76)" style="fill:#ffb600"/>
        <path data-name="패스 7589" d="m7.341 17.778 38.441.041h2.43a.749.749 0 0 0 0-1.493h-4.34l-36.53-.039a.749.749 0 0 0 0 1.493" transform="translate(-2.543 -6.225)" style="fill:#003683"/>
        <path data-name="패스 7590" d="M182.515 49.676 45.75 49.529l-38.443-.041a.749.749 0 0 0 0 1.493l36.535.039 138.671.148a.749.749 0 0 0 0-1.493" transform="translate(-2.53 -18.916)" style="fill:#003683"/>
        <path data-name="패스 7591" d="m190.076 117.6 32.641.041 29.611.032a.749.749 0 0 0 0-1.493l-31.522-.034-30.729-.039a.749.749 0 0 0 0 1.493" transform="translate(-72.39 -44.379)" style="fill:#003683"/>
        <path data-name="패스 7592" d="m182.483 82.9-136.769-.143-38.443-.041a.749.749 0 0 0 0 1.493l36.535.039 138.675.148a.749.749 0 0 0 0-1.493" transform="translate(-2.516 -31.616)" style="fill:#003683"/>
        <path data-name="패스 7593" d="M9.088 66.329v-3.2c0-2.188.93-3.56 3.107-3.56h2.924c2.176 0 3.107 1.372 3.107 3.56v.044c0 .234-.118.365-.328.365h-1.167c-.209 0-.327-.1-.327-.248v-.23c0-1.269-.38-1.546-1.284-1.546H12.2c-.905 0-1.285.277-1.285 1.546v3.34c0 1.255.406 1.532 1.285 1.532h2.924c.878 0 1.284-.277 1.284-1.532v-.277c0-.234.118-.365.327-.365H17.9c.21 0 .328.1.328.277v.292c0 2.175-.931 3.546-3.107 3.546H12.2c-2.177 0-3.107-1.371-3.107-3.546" transform="translate(-3.474 -22.77)" style="fill:#1a1311"/>
        <path data-name="패스 7594" d="M26.071 69.51v-9.572c0-.234.118-.365.328-.365h1.167c.21 0 .328.132.328.365v8h5.362c.209 0 .327.132.327.365v1.207c0 .234-.118.365-.327.365H26.4c-.21 0-.328-.132-.328-.365" transform="translate(-9.965 -22.77)" style="fill:#1a1311"/>
        <path data-name="패스 7595" d="M39.827 69.51v-9.572c0-.234.118-.365.328-.365h1.153c.21 0 .328.132.328.365v9.572c0 .234-.118.365-.328.365h-1.153c-.21 0-.328-.132-.328-.365" transform="translate(-15.223 -22.77)" style="fill:#1a1311"/>
        <path data-name="패스 7596" d="M45.431 69.51v-9.572c0-.234.118-.365.328-.365h1.416a.44.44 0 0 1 .394.248l3.29 5.968 3.278-5.968a.439.439 0 0 1 .394-.248h1.4c.21 0 .327.132.327.365v9.572c0 .234-.117.365-.327.365h-1.152c-.209 0-.327-.132-.327-.365v-6.683L51.607 67.9a.439.439 0 0 1-.394.248h-.735a.437.437 0 0 1-.393-.248l-2.845-5.058v6.668c0 .234-.118.365-.328.365h-1.153c-.21 0-.328-.132-.328-.365" transform="translate(-17.365 -22.77)" style="fill:#1a1311"/>
        <path data-name="패스 7597" d="m73.086 69.6-.616-1.5h-5.3l-.629 1.5a.418.418 0 0 1-.394.277h-1.321c-.249 0-.354-.175-.249-.423l4.169-9.616a.387.387 0 0 1 .381-.263h1.39a.388.388 0 0 1 .38.263l4.156 9.616c.106.248 0 .423-.249.423H73.48a.4.4 0 0 1-.394-.277m-1.3-3.166-1.951-4.744-1.98 4.742z" transform="translate(-24.668 -22.771)" style="fill:#1a1311"/>
        <path data-name="패스 7598" d="M83.408 69.51v-7.982h-2.832c-.21 0-.328-.131-.328-.364v-1.226c0-.234.118-.365.328-.365h7.487c.209 0 .327.132.327.365v1.226c0 .234-.118.364-.327.364h-2.832v7.982c0 .234-.118.365-.328.365h-1.167c-.21 0-.328-.132-.328-.365" transform="translate(-30.673 -22.77)" style="fill:#1a1311"/>
        <path data-name="패스 7599" d="M95.129 69.51v-9.572c0-.234.118-.365.328-.365h7.172c.209 0 .327.132.327.365v1.211c0 .234-.118.365-.327.365h-5.69v2.247h3.684c.21 0 .328.132.328.365v1.065c0 .234-.118.364-.328.364h-3.685v2.378h5.69c.209 0 .327.132.327.365v1.212c0 .234-.118.365-.327.365h-7.171c-.21 0-.328-.132-.328-.365" transform="translate(-36.361 -22.77)" style="fill:#1a1311"/>
        <path data-name="패스 7600" d="M117.418 69.51v-7.982h-2.832c-.21 0-.328-.131-.328-.364v-1.226c0-.234.118-.365.328-.365h7.487c.209 0 .327.132.327.365v1.226c0 .234-.118.364-.327.364h-2.832v7.982c0 .234-.118.365-.328.365h-1.167c-.21 0-.328-.132-.328-.365" transform="translate(-43.672 -22.77)" style="fill:#1a1311"/>
        <path data-name="패스 7601" d="M129.139 69.51v-9.572c0-.234.118-.365.328-.365h7.172c.209 0 .327.132.327.365v1.211c0 .234-.118.365-.327.365h-5.69v2.247h3.684c.21 0 .328.132.328.365v1.065c0 .234-.118.364-.328.364h-3.684v2.378h5.69c.209 0 .327.132.327.365v1.212c0 .234-.118.365-.327.365h-7.172c-.21 0-.328-.132-.328-.365" transform="translate(-49.36 -22.77)" style="fill:#1a1311"/>
        <path data-name="패스 7602" d="M143.321 66.329v-3.2c0-2.188.93-3.56 3.107-3.56h2.924c2.176 0 3.107 1.372 3.107 3.56v.044c0 .234-.118.365-.328.365h-1.167c-.209 0-.327-.1-.327-.248v-.23c0-1.269-.38-1.546-1.284-1.546h-2.924c-.905 0-1.285.277-1.285 1.546v3.34c0 1.255.407 1.532 1.285 1.532h2.924c.878 0 1.284-.277 1.284-1.532v-.277c0-.234.118-.365.327-.365h1.167c.21 0 .328.1.328.277v.292c0 2.175-.931 3.546-3.107 3.546h-2.924c-2.177 0-3.107-1.371-3.107-3.546" transform="translate(-54.781 -22.77)" style="fill:#1a1311"/>
        <path data-name="패스 7603" d="M160.3 69.51v-9.572c0-.234.118-.365.328-.365h1.172c.21 0 .328.132.328.365V63.8h4.972v-3.862c0-.234.118-.365.328-.365h1.172c.209 0 .327.132.327.365v9.572c0 .234-.118.365-.327.365h-1.181c-.21 0-.328-.132-.328-.365V65.6h-4.968v3.91c0 .234-.118.365-.328.365h-1.167c-.21 0-.328-.132-.328-.365" transform="translate(-61.272 -22.77)" style="fill:#1a1311"/>
        <path data-name="패스 7604" d="M181.872 66.782c-.013-.248.105-.379.314-.379h1.167c.21 0 .315.131.328.365.078.846.432 1.167 1.285 1.167h2.569c1 0 1.351-.277 1.351-1.124 0-.817-.341-1.036-1.219-1.109l-2.924-.248c-2.019-.175-2.819-.9-2.819-2.831 0-1.969.853-3.049 3.134-3.049h2.4c2.072 0 3 1.036 3.094 3.093.013.248-.105.379-.314.379h-1.181c-.209 0-.314-.131-.327-.364-.078-.846-.433-1.168-1.272-1.168h-2.373c-1.009 0-1.363.263-1.363 1.124 0 .8.34 1.007 1.219 1.08l2.924.248c1.993.175 2.832.948 2.832 2.86 0 1.97-.852 3.049-3.146 3.049h-2.583c-2.085 0-3-1.035-3.094-3.093" transform="translate(-69.516 -22.771)" style="fill:#1a1311"/>
        <path data-name="패스 7605" d="M200.424 69.51v-7.982h-2.832c-.21 0-.328-.131-.328-.364v-1.226c0-.234.118-.365.328-.365h7.487c.209 0 .327.132.327.365v1.226c0 .234-.118.364-.327.364h-2.832v7.982c0 .234-.118.365-.328.365h-1.167c-.21 0-.328-.132-.328-.365" transform="translate(-75.4 -22.77)" style="fill:#1a1311"/>
        <path data-name="패스 7606" d="M217.616 69.6 217 68.1h-5.3l-.629 1.5a.418.418 0 0 1-.393.277h-1.325c-.249 0-.354-.175-.249-.423l4.169-9.616a.387.387 0 0 1 .381-.263h1.39a.388.388 0 0 1 .38.263l4.156 9.616c.106.248 0 .423-.249.423h-1.321a.4.4 0 0 1-.394-.277m-1.3-3.166-1.953-4.742-1.98 4.742z" transform="translate(-79.911 -22.771)" style="fill:#1a1311"/>
        <path data-name="패스 7607" d="m234.612 66.971 1.56 2.466c.158.248.053.438-.209.438H234.6a.423.423 0 0 1-.393-.234l-1.43-2.466h-3.225v2.335c0 .234-.119.365-.329.365h-1.167c-.21 0-.327-.132-.327-.365v-9.572c0-.234.117-.365.327-.365h4.76c2.687 0 3.71 1.255 3.71 3.721v.219c0 1.78-.51 2.991-1.914 3.458m.079-3.663c0-1.517-.59-1.795-2.019-1.795h-3.12v3.737h3.12c1.4 0 2.019-.263 2.019-1.751z" transform="translate(-87.044 -22.77)" style="fill:#1a1311"/>
        <path data-name="패스 7608" d="M246.3 69.51v-7.982h-2.832c-.21 0-.328-.131-.328-.364v-1.226c0-.234.118-.365.328-.365h7.487c.209 0 .327.132.327.365v1.226c0 .234-.118.364-.327.364h-2.832v7.982c0 .234-.118.365-.328.365h-1.167c-.21 0-.328-.132-.328-.365" transform="translate(-92.935 -22.77)" style="fill:#1a1311"/>
        <path data-name="패스 7609" d="M258.108 66.329v-6.391c0-.234.118-.365.328-.365h1.164c.209 0 .327.132.327.365V66.4c0 1.255.406 1.532 1.285 1.532h2.95c.878 0 1.272-.277 1.272-1.532v-6.462c0-.234.118-.365.327-.365h1.18c.21 0 .328.132.328.365v6.391c0 2.175-.944 3.546-3.107 3.546h-2.95c-2.176 0-3.107-1.371-3.107-3.546" transform="translate(-98.656 -22.77)" style="fill:#1a1311"/>
        <path data-name="패스 7610" d="M275.707 69.511v-9.572c0-.234.118-.365.328-.365h4.759c2.674 0 3.606 1.255 3.606 3.692v.321c0 2.364-.932 3.633-3.606 3.633h-3.264v2.291c0 .234-.118.365-.328.365h-1.167c-.21 0-.328-.132-.328-.365m4.943-4.217c1.35 0 1.927-.321 1.927-1.722v-.306c0-1.473-.55-1.751-1.927-1.751h-3.12v3.779z" transform="translate(-105.383 -22.771)" style="fill:#1a1311"/>
        <path data-name="패스 7611" d="M9.618 36.462v-1.3a.509.509 0 0 1 .224-.438l5.244-3.516c1-.657 1.233-.875 1.233-1.561 0-.948-.328-1.182-1.352-1.182h-2.242c-.944 0-1.284.248-1.284 1.546v.117c0 .234-.119.365-.328.365H9.946c-.209 0-.328-.073-.328-.2v-.2c0-2.188.669-3.56 3.107-3.56h2.3c2.281 0 3.107 1.095 3.107 2.977 0 1.751-.656 2.233-2.478 3.429l-2.963 1.955h5.087c.211 0 .328.132.328.365v1.211c0 .234-.117.365-.328.365H9.946c-.209 0-.328-.132-.328-.365" transform="translate(-3.676 -10.139)" style="fill:#1a1311"/>
        <path data-name="패스 7612" d="M25.371 33.281v-3.2c0-2.188.93-3.56 3.107-3.56h3.107c2.176 0 3.107 1.372 3.107 3.56v3.2c0 2.174-.931 3.546-3.107 3.546h-3.107c-2.176 0-3.107-1.372-3.107-3.546m6.214 1.6c.878 0 1.285-.277 1.285-1.532v-3.337c0-1.269-.366-1.546-1.285-1.546h-3.107c-.905 0-1.285.277-1.285 1.546v3.342c0 1.255.406 1.532 1.285 1.532z" transform="translate(-9.697 -10.139)" style="fill:#1a1311"/>
        <path data-name="패스 7613" d="M42.481 36.462v-1.3a.509.509 0 0 1 .224-.438l5.244-3.516c1-.657 1.233-.875 1.233-1.561 0-.948-.328-1.182-1.352-1.182h-2.242c-.944 0-1.284.248-1.284 1.546v.117c0 .234-.119.365-.328.365h-1.167c-.209 0-.328-.073-.328-.2v-.2c0-2.188.669-3.56 3.107-3.56h2.3c2.281 0 3.107 1.095 3.107 2.977 0 1.751-.656 2.233-2.479 3.429l-2.963 1.955h5.087c.211 0 .328.132.328.365v1.211c0 .234-.117.365-.328.365h-7.831c-.209 0-.328-.132-.328-.365" transform="translate(-16.237 -10.139)" style="fill:#1a1311"/>
        <path data-name="패스 7614" d="M63.749 36.462V34.74h-6.057c-.21 0-.328-.132-.328-.365V33.12a.574.574 0 0 1 .183-.438l5.992-5.982a.523.523 0 0 1 .406-.175h1.232c.211 0 .328.131.328.365v6h.984c.209 0 .328.132.328.365v1.123c0 .234-.119.365-.328.365h-.984v1.722c0 .234-.117.364-.328.364h-1.1c-.209 0-.327-.131-.327-.364m0-3.575v-4.132l-4.17 4.129z" transform="translate(-21.926 -10.139)" style="fill:#1a1311"/>
        <path data-name="패스 7615" d="M194.276 99.627c-.013-.252.107-.385.319-.385h1.183c.213 0 .319.133.332.37.08.857.439 1.183 1.3 1.183h2.6c1.011 0 1.37-.281 1.37-1.139 0-.828-.346-1.05-1.236-1.124l-2.963-.251c-2.046-.177-2.857-.917-2.857-2.869 0-2 .864-3.091 3.175-3.091h2.432c2.1 0 3.043 1.05 3.136 3.135.014.251-.106.385-.319.385h-1.2c-.212 0-.319-.133-.332-.37-.08-.857-.439-1.183-1.289-1.183h-2.4c-1.023 0-1.382.266-1.382 1.139 0 .813.345 1.02 1.236 1.094l2.963.251c2.02.177 2.87.961 2.87 2.9 0 2-.863 3.09-3.189 3.09h-2.618c-2.113 0-3.043-1.05-3.136-3.135" transform="translate(-74.257 -35.288)" style="fill:#1a1311"/>
        <path data-name="패스 7616" d="M210.691 99.168v-6.477c0-.237.12-.37.332-.37h1.182c.213 0 .332.133.332.37v6.551c0 1.272.412 1.553 1.3 1.553h2.989c.891 0 1.29-.281 1.29-1.553v-6.551c0-.237.119-.37.332-.37h1.2c.212 0 .332.133.332.37v6.477c0 2.2-.958 3.594-3.15 3.594h-2.99c-2.205 0-3.149-1.39-3.149-3.594" transform="translate(-80.532 -35.288)" style="fill:#1a1311"/>
        <path data-name="패스 7617" d="M228.413 102.391v-9.7c0-.237.12-.37.332-.37h1.435a.445.445 0 0 1 .4.251l3.335 6.048 3.322-6.048a.446.446 0 0 1 .4-.251h1.421c.212 0 .332.133.332.37v9.7c0 .237-.12.37-.332.37h-1.17c-.212 0-.331-.133-.331-.37v-6.772l-2.884 5.146a.444.444 0 0 1-.4.251h-.744a.444.444 0 0 1-.4-.251l-2.884-5.131v6.758c0 .237-.119.37-.332.37h-1.169c-.213 0-.332-.133-.332-.37" transform="translate(-87.306 -35.288)" style="fill:#1a1311"/>
        <path data-name="패스 7618" d="M248.622 102.391v-9.7c0-.237.12-.37.332-.37h1.435a.445.445 0 0 1 .4.251l3.335 6.048 3.322-6.048a.446.446 0 0 1 .4-.251h1.421c.212 0 .332.133.332.37v9.7c0 .237-.12.37-.332.37H258.1c-.212 0-.331-.133-.331-.37v-6.772l-2.884 5.146a.444.444 0 0 1-.4.251h-.744a.444.444 0 0 1-.4-.251l-2.884-5.131v6.758c0 .237-.119.37-.332.37h-1.169c-.213 0-.332-.133-.332-.37" transform="translate(-95.03 -35.288)" style="fill:#1a1311"/>
        <path data-name="패스 7619" d="M269.466 102.391v-9.7c0-.237.119-.37.332-.37h1.169c.213 0 .332.133.332.37v9.7c0 .237-.119.37-.332.37H269.8c-.213 0-.332-.133-.332-.37" transform="translate(-102.997 -35.288)" style="fill:#1a1311"/>
        <path data-name="패스 7620" d="M278.2 102.391V94.3h-2.87c-.213 0-.332-.133-.332-.369v-1.24c0-.237.12-.37.332-.37h7.587c.213 0 .332.133.332.37v1.242c0 .237-.12.369-.332.369h-2.87v8.089c0 .237-.119.37-.332.37h-1.182c-.213 0-.332-.133-.332-.37" transform="translate(-105.11 -35.288)" style="fill:#1a1311"/>
    </g>
</svg>
