<svg xmlns="http://www.w3.org/2000/svg" width="217.7" height="45.062" viewBox="0 0 217.7 45.062">
    <defs>
        <clipPath id="y6rjqjoo4a">
            <path data-name="사각형 15" style="fill:#fff" d="M0 0h217.7v45.062H0z"/>
        </clipPath>
    </defs>
    <g data-name="그룹 13382">
        <g data-name="그룹 1" style="clip-path:url(#y6rjqjoo4a)">
            <path data-name="패스 1" d="m13.24 15.443-2.648-1.1a18.829 18.829 0 0 1-2.108-.982A4.959 4.959 0 0 1 7.1 12.282a2.54 2.54 0 0 1-.5-1.694 2.181 2.181 0 0 1 1.25-1.862A3.722 3.722 0 0 1 9 8.259a7.654 7.654 0 0 1 1.679-.149 7.884 7.884 0 0 1 2.269.37 6.283 6.283 0 0 1 1.067.378c.337.156.711.339 1.129.553a3.054 3.054 0 0 0 1.4.319c.512 0 .964-.429 1.346-1.287a5.842 5.842 0 0 0 .58-2.367 1.643 1.643 0 0 0-.982-1.348 14.008 14.008 0 0 0-7.142-1.668A11.255 11.255 0 0 0 3.651 5a6.782 6.782 0 0 0-3.063 5.835 7.562 7.562 0 0 0 1.617 4.975 8.978 8.978 0 0 0 1.853 1.656A19.719 19.719 0 0 0 6.351 18.8a18.792 18.792 0 0 0 2.563 1.052 23.932 23.932 0 0 1 2.462.958q2.673 1.2 2.674 2.941 0 3.165-4.709 3.163a8.871 8.871 0 0 1-3.067-.552 8.356 8.356 0 0 1-2.388-1.25 2.693 2.693 0 0 0-1.643-.7 1.373 1.373 0 0 0-1.227.848c-.3.566-.546 1.053-.736 1.472A3.426 3.426 0 0 0 0 28.146c0 .524.43 1.112 1.3 1.767q2.65 2.036 7.922 2.034 5.2 0 8.02-2.622a8.076 8.076 0 0 0 2.55-6.133 7.24 7.24 0 0 0-2.209-5.223 14.937 14.937 0 0 0-4.34-2.526" transform="translate(0 -.199)" style="fill:#fff"/>
            <path data-name="패스 2" d="M46.731 24.124a6.75 6.75 0 0 1-5.839 2.745 6.952 6.952 0 0 1-5.884-2.8 9 9 0 0 1-1.432-2.9 12.021 12.021 0 0 1-.48-3.41 15.006 15.006 0 0 1 .417-3.507 9.365 9.365 0 0 1 1.338-3.088 6.917 6.917 0 0 1 2.377-2.184 7.2 7.2 0 0 1 3.578-.821 7.142 7.142 0 0 1 3.62.859q4.068 2.353 4.071 8.558a10.846 10.846 0 0 1-1.767 6.547M40.8 3.06a13.25 13.25 0 0 0-9.834 3.948 13.6 13.6 0 0 0-2.929 4.55 15.56 15.56 0 0 0-1.067 5.847 14.59 14.59 0 0 0 3.776 10.447A13.06 13.06 0 0 0 40.8 31.945a13.156 13.156 0 0 0 9.832-4 14.34 14.34 0 0 0 4-10.492q0-6.649-3.533-10.449Q47.444 3.062 40.8 3.06" transform="translate(-1.759 -.199)" style="fill:#fff"/>
            <path data-name="패스 3" d="M82.934 23.413a5.581 5.581 0 0 1-5.273 3.458 6.746 6.746 0 0 1-5.051-2.4 8.656 8.656 0 0 1-2.356-6.08v-1.352a9.262 9.262 0 0 1 2.233-6.155 7.086 7.086 0 0 1 5.565-2.7 5.366 5.366 0 0 1 4.636 2.549 9.892 9.892 0 0 1 1.62 5.74 15.462 15.462 0 0 1-1.374 6.939M84.282 4.1a10.66 10.66 0 0 0-4.79-1.042c-.446 0-.873.025-1.29.062l-.064.007a13.543 13.543 0 0 0-8.406 3.846v.018a11.093 11.093 0 0 0-.721-2.143 1.968 1.968 0 0 0-1.914-1.179H65.6a1.553 1.553 0 0 0-1.166.469 1.437 1.437 0 0 0-.454 1.029 3.966 3.966 0 0 0 .076.881 49.155 49.155 0 0 1 .733 10.052v27.152q0 1.911 1.543 1.912h3.043q1.447 0 1.446-1.815V33.221c0-.6-.007-1.171-.016-1.721v-2.134a12.316 12.316 0 0 0 7.766 2.581v-.009c.091 0 .179.009.269.009a10.1 10.1 0 0 0 8.61-4.636 17.927 17.927 0 0 0 3.117-10.69q0-6.059-2.773-9.663A9.9 9.9 0 0 0 84.282 4.1" transform="translate(-4.173 -.199)" style="fill:#fff"/>
            <path data-name="패스 4" d="M118.372 24.124a6.749 6.749 0 0 1-5.837 2.745 6.954 6.954 0 0 1-5.886-2.8 9.045 9.045 0 0 1-1.434-2.9 12.153 12.153 0 0 1-.478-3.41 14.623 14.623 0 0 1 .421-3.507 9.317 9.317 0 0 1 1.332-3.088 6.95 6.95 0 0 1 2.377-2.184 7.216 7.216 0 0 1 3.584-.821 7.132 7.132 0 0 1 3.615.859q4.07 2.353 4.071 8.558a10.846 10.846 0 0 1-1.765 6.547M112.437 3.06a13.243 13.243 0 0 0-9.832 3.948 13.575 13.575 0 0 0-2.931 4.55 15.5 15.5 0 0 0-1.067 5.847 14.6 14.6 0 0 0 3.776 10.447 14.245 14.245 0 0 0 19.888.1 14.352 14.352 0 0 0 4-10.492q0-6.649-3.533-10.449-3.65-3.946-10.3-3.948" transform="translate(-6.432 -.199)" style="fill:#fff"/>
            <path data-name="패스 5" d="M154.2 24.124a6.745 6.745 0 0 1-5.835 2.745 6.951 6.951 0 0 1-5.886-2.8 9.007 9.007 0 0 1-1.434-2.9 12.055 12.055 0 0 1-.48-3.41 14.813 14.813 0 0 1 .421-3.507 9.283 9.283 0 0 1 1.336-3.088 6.883 6.883 0 0 1 2.378-2.183 7.211 7.211 0 0 1 3.58-.821 7.121 7.121 0 0 1 3.616.859q4.069 2.353 4.072 8.558a10.846 10.846 0 0 1-1.767 6.547M148.269 3.06a13.254 13.254 0 0 0-9.832 3.948 13.6 13.6 0 0 0-2.93 4.55 15.559 15.559 0 0 0-1.067 5.847 14.6 14.6 0 0 0 3.776 10.447 14.245 14.245 0 0 0 19.888.1 14.341 14.341 0 0 0 4-10.492q0-6.649-3.53-10.449-3.65-3.946-10.3-3.948" transform="translate(-8.769 -.199)" style="fill:#fff"/>
            <path data-name="패스 6" d="M191.815 3.93a8.37 8.37 0 0 0-3.789-.87c-.383 0-.746.014-1.094.032-.118.007-.23.018-.347.028a11.53 11.53 0 0 0-1.883.287 12.606 12.606 0 0 0-6.914 4.074 15.475 15.475 0 0 0-.932-2.776 1.869 1.869 0 0 0-1.863-1.031h-1.351c-1.125 0-1.69.59-1.69 1.766a23.625 23.625 0 0 0 .317 2.343 49.311 49.311 0 0 1 .319 6.877v15.055a1.615 1.615 0 0 0 .445 1.154 1.707 1.707 0 0 0 1.3.464h2.524a1.625 1.625 0 0 0 1.275-.464 1.659 1.659 0 0 0 .416-1.154V16.08a7.8 7.8 0 0 1 2.381-5.639 6.8 6.8 0 0 1 4.93-2.257q4.609 0 4.608 6.278v15.253a1.612 1.612 0 0 0 .441 1.154 1.811 1.811 0 0 0 1.374.464h2.4a1.708 1.708 0 0 0 1.3-.464 1.6 1.6 0 0 0 .441-1.154V14.487q0-5.394-1.864-8.165a6.932 6.932 0 0 0-2.745-2.391" transform="translate(-11.216 -.199)" style="fill:#fff"/>
            <path data-name="패스 7" d="M224.648 37.756q-1.817 2.28-6.426 2.28a9.7 9.7 0 0 1-4.852-1.1 5.019 5.019 0 0 1-1.62-1.471 3.665 3.665 0 0 1-.612-2.135 3.364 3.364 0 0 1 .907-2.28q1.594-1.153 6.007-1.152a12.411 12.411 0 0 1 4.66.734 4.888 4.888 0 0 1 1.8 1.252 2.85 2.85 0 0 1 .722 1.962 3.039 3.039 0 0 1-.588 1.913m-9.479-19.532a5.781 5.781 0 0 1-1.947-1.1 5.083 5.083 0 0 1-1.3-1.73 5.3 5.3 0 0 1-.466-2.267 4.8 4.8 0 0 1 .49-2.22q1.5-2.918 5.418-2.918a6.837 6.837 0 0 1 4.171 1.25 4.6 4.6 0 0 1 1.914 3.9 5.111 5.111 0 0 1-1.718 3.973 5.549 5.549 0 0 1-1.864 1.115 6.784 6.784 0 0 1-2.318.38 7.347 7.347 0 0 1-2.379-.38m12.324 11.14a11.749 11.749 0 0 0-3.643-1.509 20.09 20.09 0 0 0-4.608-.479 11.011 11.011 0 0 0-4.892 1.127 10.119 10.119 0 0 1 1.471-1.36q1.05-.848 6.425-4.256a24.79 24.79 0 0 0 1.9-1.346 18.222 18.222 0 0 0 1.793-1.595 11.281 11.281 0 0 0 1.495-1.877 9.683 9.683 0 0 0 1.042-2.2 6.653 6.653 0 0 0 .393-2.057c0-.588-.018-1.063-.049-1.424a16.952 16.952 0 0 0 1.813-7.818C230.631.8 229.951 0 228.6 0h-2.11a1.6 1.6 0 0 0-.833.22 1.336 1.336 0 0 0-.429.43 1.349 1.349 0 0 0-.184.748c0 .309.193.729.576 2.339a12.2 12.2 0 0 1 .58 3.587 6.478 6.478 0 0 0-1.376-1.838 10.643 10.643 0 0 0-7.626-2.623 11.872 11.872 0 0 0-7.774 2.672 9.49 9.49 0 0 0-3.554 7.675 8.788 8.788 0 0 0 3.162 6.889 11.736 11.736 0 0 0 6.815 2.82 29.455 29.455 0 0 0-4.658 3.312q-5.421 4.78-5.419 9.9a7.591 7.591 0 0 0 3.751 6.67 15.688 15.688 0 0 0 8.7 2.257 16.117 16.117 0 0 0 8.78-2.3 7.931 7.931 0 0 0 4.119-6.94 7.242 7.242 0 0 0-3.629-6.448" transform="translate(-13.421)" style="fill:#fff"/>
        </g>
    </g>
</svg>
